if (_typeface_js && _typeface_js.loadFace) _typeface_js.loadFace({"glyphs":{"ο":{"x_min":30,"x_max":726.859375,"ha":758,"o":"m 387 683 q 633 587 540 683 q 726 337 726 492 q 634 79 726 173 q 378 -15 541 -15 q 125 78 221 -15 q 30 333 30 172 q 127 590 30 498 q 387 683 224 683 m 265 173 q 300 85 270 119 q 379 51 329 51 q 456 85 428 51 q 494 172 483 119 q 500 236 496 194 q 505 336 505 279 q 500 431 505 391 q 494 494 496 472 q 456 581 483 548 q 378 615 428 615 q 286 563 310 615 q 257 459 262 512 q 251 333 251 406 q 265 173 251 248 "},"S":{"x_min":54.265625,"x_max":676,"ha":726,"o":"m 96 251 l 117 251 q 187 115 145 157 q 319 74 229 74 q 432 112 380 74 q 484 210 484 150 q 377 350 484 294 q 168 460 270 406 q 57 663 57 538 q 159 874 57 800 q 403 948 262 948 q 643 890 527 948 q 612 804 625 847 q 588 712 599 761 l 573 712 q 501 817 550 778 q 386 856 452 856 q 281 826 325 856 q 237 738 237 796 q 346 608 237 666 q 561 496 455 550 q 676 295 676 416 q 561 61 676 142 q 288 -19 446 -19 q 168 -9 225 -19 q 54 25 111 0 q 72 115 63 67 q 96 251 81 164 "},"/":{"x_min":-32.671875,"x_max":411.0625,"ha":376,"o":"m 332 1023 l 411 1023 l 46 -126 l -32 -126 l 332 1023 "},"Τ":{"x_min":10,"x_max":722,"ha":734,"o":"m 485 817 q 485 723 485 790 q 485 652 485 656 q 485 427 485 529 q 485 202 485 326 q 485 2 485 77 q 430 2 472 2 q 367 2 388 2 q 312 2 344 2 q 248 2 279 2 q 248 266 248 88 q 248 476 248 444 q 248 670 248 533 q 248 815 248 808 q 155 815 184 815 q 10 801 126 815 l 10 871 l 10 926 q 195 926 69 926 q 366 926 321 926 q 562 926 437 926 q 722 926 687 926 l 722 870 l 722 801 q 485 817 603 817 "},"ϕ":{"x_min":31,"x_max":977,"ha":1007,"o":"m 403 -5 q 143 81 255 -5 q 31 323 31 167 q 139 562 31 476 q 403 666 248 648 q 403 820 403 718 q 403 977 403 923 q 472 971 436 971 q 604 977 544 971 q 604 829 604 939 q 604 664 604 719 q 865 573 754 664 q 977 328 977 483 q 869 90 977 171 q 604 -6 762 8 q 604 -197 604 -68 q 604 -372 604 -325 l 532 -366 q 461 -366 493 -366 q 403 -372 429 -366 q 403 -182 403 -314 q 403 -5 403 -50 m 598 329 l 598 61 q 727 147 690 72 q 765 329 765 222 q 727 511 765 433 q 598 601 689 589 l 598 329 m 409 601 q 281 511 319 589 q 243 329 243 433 q 280 148 243 224 q 409 61 317 72 l 409 329 l 409 601 "},"y":{"x_min":0,"x_max":656.0625,"ha":640,"o":"m 264 -16 l 74 480 q 36 579 57 529 q 0 663 16 629 q 65 663 21 663 q 132 663 108 663 q 197 663 151 663 q 246 663 243 663 q 302 464 272 561 q 372 255 332 367 l 443 462 q 472 561 453 492 q 502 666 492 630 l 566 661 q 611 663 581 661 q 656 666 641 666 q 430 138 525 374 q 239 -373 334 -97 q 161 -368 202 -368 q 129 -368 142 -368 q 84 -373 117 -368 q 142 -277 117 -323 q 191 -176 167 -230 l 264 -16 "},"≈":{"x_min":116,"x_max":999,"ha":1116,"o":"m 999 526 q 876 458 937 483 q 751 433 815 433 q 559 477 684 433 q 366 522 434 522 q 233 489 291 522 q 116 416 175 456 l 116 561 q 249 632 184 606 q 384 658 314 658 q 565 614 441 658 q 745 570 690 570 q 868 595 809 570 q 999 670 926 621 l 999 526 m 999 250 q 874 182 933 207 q 751 158 815 158 q 557 201 683 158 q 366 245 431 245 q 246 218 302 245 q 116 141 190 192 l 116 287 q 247 357 184 331 q 379 384 311 384 q 564 339 438 384 q 745 294 690 294 q 868 321 808 294 q 999 396 928 348 l 999 250 "},"Π":{"x_min":97,"x_max":939.53125,"ha":1028,"o":"m 97 284 l 97 461 q 97 651 97 534 q 97 784 97 767 l 97 926 q 207 926 128 926 q 325 926 286 926 l 698 926 q 818 926 738 926 q 930 926 898 926 q 930 692 930 856 q 930 465 930 527 q 930 221 930 315 q 939 2 930 127 l 814 2 q 743 2 794 2 q 686 2 692 2 q 695 63 692 33 q 699 130 699 93 l 699 504 l 699 815 l 506 815 l 330 815 q 330 642 330 762 q 330 516 330 523 l 330 130 q 340 2 330 59 q 275 2 319 2 q 212 2 231 2 l 97 2 q 97 146 97 40 q 97 284 97 252 "},"ΐ":{"x_min":-144,"x_max":541,"ha":389,"o":"m 90 125 l 90 542 l 79 665 q 137 660 103 660 q 193 660 170 660 q 260 661 234 660 q 309 665 286 662 q 299 586 302 615 q 296 522 296 557 l 296 113 q 298 72 296 88 q 308 1 300 56 l 192 1 l 80 1 q 86 66 83 30 q 90 125 90 103 m -63 960 q -6 934 -30 960 q 17 876 17 908 q -7 819 17 843 q -63 796 -32 796 q -119 819 -94 796 q -144 878 -144 843 q -120 934 -144 909 q -63 960 -97 960 m 269 1016 q 310 998 292 1016 q 328 957 328 980 q 314 919 328 935 q 277 886 300 903 l 92 755 l 35 755 l 178 950 q 221 998 200 980 q 269 1016 242 1016 m 460 960 q 517 934 494 960 q 541 876 541 909 q 517 819 541 843 q 461 796 494 796 q 404 819 429 796 q 380 878 380 843 q 403 935 380 911 q 460 960 427 960 "},"g":{"x_min":23,"x_max":701,"ha":686,"o":"m 209 272 q 92 332 139 279 q 45 456 45 384 q 126 622 45 563 q 316 682 208 682 l 375 682 l 524 661 l 594 661 q 653 663 628 661 q 701 665 679 665 l 701 586 l 570 586 q 611 543 598 570 q 624 477 624 515 q 531 301 624 354 q 304 249 438 249 q 253 236 276 249 q 231 196 231 224 q 378 143 231 143 q 611 111 525 143 q 697 -62 697 79 q 579 -294 697 -215 q 307 -373 462 -373 q 109 -325 195 -373 q 23 -174 23 -278 q 62 -64 23 -109 q 169 -6 102 -18 l 169 0 q 100 40 127 8 q 74 112 74 71 q 115 202 74 164 q 209 251 156 240 l 209 272 m 166 -142 q 217 -254 166 -214 q 344 -294 269 -294 q 474 -253 419 -294 q 530 -138 530 -213 q 514 -80 530 -106 q 463 -39 498 -53 q 376 -18 428 -24 q 263 -12 323 -12 l 235 -12 q 166 -142 166 -53 m 326 305 q 403 352 384 305 q 423 471 423 399 q 405 579 423 535 q 334 624 387 624 q 261 576 281 624 q 242 465 242 529 q 256 350 242 396 q 326 305 271 305 "},"²":{"x_min":22.03125,"x_max":456.15625,"ha":485,"o":"m 22 400 q 154 502 100 456 q 244 607 207 548 q 282 742 282 667 q 262 825 282 802 q 212 848 243 848 q 144 816 164 848 q 109 726 124 785 l 100 726 l 30 800 q 241 901 114 901 q 378 864 321 901 q 436 750 436 827 q 403 642 436 681 q 197 473 371 603 l 279 473 q 379 473 309 473 q 456 473 450 473 q 448 413 448 439 q 450 382 448 400 q 456 355 453 364 q 325 355 404 355 q 245 355 246 355 l 27 355 l 22 400 "},"Κ":{"x_min":97,"x_max":875.453125,"ha":839,"o":"m 331 716 l 331 515 l 558 787 q 622 865 607 845 q 668 929 638 885 l 752 929 q 801 930 769 929 q 853 931 834 931 q 674 746 774 851 q 494 554 574 641 l 611 377 q 875 3 739 179 l 739 3 q 651 3 713 3 q 584 3 589 3 q 475 190 535 98 q 328 404 416 282 l 328 193 q 340 3 328 94 q 265 3 318 3 q 208 3 211 3 l 97 3 q 97 236 97 69 q 97 461 97 402 q 97 623 97 515 q 97 787 97 731 l 97 931 q 154 926 111 931 q 215 922 197 922 q 277 924 248 922 q 331 931 306 927 q 331 831 331 906 q 331 716 331 755 "},"ë":{"x_min":41,"x_max":671,"ha":715,"o":"m 473 97 q 555 111 522 97 q 631 159 589 126 l 649 151 q 630 95 639 124 q 616 40 621 66 q 511 -1 566 11 q 396 -15 457 -15 q 138 79 236 -15 q 41 336 41 173 q 135 586 41 490 q 379 683 230 683 q 596 601 522 683 q 671 373 671 520 l 671 332 l 262 332 q 319 164 262 231 q 473 97 377 97 m 230 976 q 295 948 268 976 q 323 878 323 920 q 298 811 323 839 q 233 784 274 784 q 164 811 192 784 q 137 878 137 838 q 164 947 137 918 q 230 976 192 976 m 484 976 q 549 948 522 976 q 577 878 577 920 q 551 811 577 838 q 487 784 526 784 q 419 811 447 784 q 392 878 392 838 q 419 946 392 917 q 484 976 446 976 m 469 411 q 472 444 472 422 q 450 567 472 513 q 370 621 429 621 q 286 563 311 621 q 261 437 261 505 l 261 411 l 469 411 "},"e":{"x_min":42,"x_max":671,"ha":715,"o":"m 474 95 q 555 110 521 95 q 631 161 589 125 l 649 154 q 628 84 634 106 q 616 40 622 62 q 512 -1 566 11 q 396 -15 458 -15 q 138 77 235 -15 q 42 336 42 170 q 135 585 42 488 q 378 683 229 683 q 596 602 521 683 q 671 375 671 522 l 671 332 l 263 332 q 320 162 263 230 q 474 95 376 95 m 471 411 l 471 444 q 449 567 471 513 q 370 622 427 622 q 286 565 311 622 q 262 438 262 509 l 262 411 l 471 411 "},"ό":{"x_min":30,"x_max":726.859375,"ha":758,"o":"m 387 683 q 633 587 540 683 q 726 337 726 492 q 634 79 726 173 q 378 -15 541 -15 q 125 78 221 -15 q 30 333 30 172 q 127 590 30 498 q 387 683 224 683 m 528 953 q 580 1002 560 987 q 627 1018 600 1018 q 679 995 659 1018 q 700 944 700 973 q 681 897 700 916 q 631 863 663 878 l 412 755 l 345 755 l 528 953 m 265 173 q 300 85 270 119 q 379 51 329 51 q 456 85 428 51 q 494 172 483 119 q 500 236 496 194 q 505 336 505 279 q 500 431 505 391 q 494 494 496 472 q 456 581 483 548 q 378 615 428 615 q 286 563 310 615 q 257 459 262 512 q 251 333 251 406 q 265 173 251 248 "},"J":{"x_min":-36.28125,"x_max":342.03125,"ha":439,"o":"m 211 928 q 288 928 233 928 q 342 928 343 928 q 342 678 342 855 q 342 449 342 501 q 342 313 342 410 q 342 213 342 217 l 342 104 q 246 -128 342 -36 q 10 -221 151 -221 l -24 -216 l -36 -145 l 12 -145 q 88 -95 69 -145 q 108 28 108 -45 l 108 218 q 108 618 108 351 q 108 928 108 885 l 211 928 "},"»":{"x_min":54.4375,"x_max":577.109375,"ha":617,"o":"m 185 330 l 54 603 l 108 655 l 333 333 l 108 9 l 54 66 l 185 330 m 430 330 l 299 603 l 352 655 l 577 333 l 352 9 l 299 66 l 430 330 "},"©":{"x_min":71,"x_max":1043,"ha":1115,"o":"m 1043 485 q 900 139 1043 285 q 559 -6 757 -6 q 216 139 362 -6 q 71 488 71 285 q 215 836 71 688 q 556 984 360 984 q 898 835 754 984 q 1043 485 1043 686 m 153 489 q 272 199 153 323 q 555 75 391 75 q 841 197 720 75 q 963 486 963 319 q 844 780 963 658 q 557 903 726 903 q 272 780 391 903 q 153 489 153 657 m 670 596 q 637 665 670 636 q 562 695 604 695 q 460 635 491 695 q 430 499 430 576 q 458 354 430 421 q 552 288 487 288 q 674 397 652 288 l 799 397 q 721 247 790 303 q 559 191 653 191 q 367 273 439 191 q 295 481 295 356 q 363 695 295 603 q 548 787 432 787 q 712 736 642 787 q 792 596 781 685 l 670 596 "},"ώ":{"x_min":30,"x_max":1039,"ha":1072,"o":"m 329 -15 q 109 79 189 -15 q 30 320 30 173 q 71 504 30 420 q 189 666 112 588 q 291 662 232 662 q 340 662 312 662 q 382 666 367 662 q 242 280 242 499 q 263 123 242 194 q 350 51 285 51 q 412 86 391 51 q 434 165 434 121 l 434 292 q 434 415 434 379 q 425 512 434 451 q 501 506 489 506 q 534 506 512 506 q 596 508 568 506 q 644 511 624 511 q 635 403 635 465 q 635 289 635 340 q 635 237 635 258 q 636 165 635 215 q 655 85 636 119 q 715 51 674 51 q 805 121 782 51 q 828 279 828 191 q 792 481 828 386 q 687 666 756 576 q 731 663 710 663 q 778 663 752 663 q 830 663 796 663 q 881 663 864 663 q 997 506 955 591 q 1039 320 1039 420 q 956 83 1039 181 q 738 -15 873 -15 q 618 13 672 -15 q 534 100 564 41 q 450 14 505 44 q 329 -15 394 -15 m 670 953 q 723 1002 703 987 q 771 1017 743 1017 q 822 995 801 1017 q 843 944 843 973 q 824 897 843 916 q 775 863 806 878 l 556 755 l 488 755 l 670 953 "},"≥":{"x_min":167,"x_max":946,"ha":1116,"o":"m 946 572 l 946 455 l 170 200 l 170 338 l 714 513 l 170 688 l 170 828 l 946 572 m 946 132 l 946 0 l 167 0 l 167 132 l 946 132 "},"^":{"x_min":-2.71875,"x_max":416.5,"ha":429,"o":"m 145 1002 l 265 1002 l 416 755 l 349 755 l 206 877 l 61 755 l -2 755 l 145 1002 "},"«":{"x_min":39.46875,"x_max":563.5,"ha":617,"o":"m 189 335 l 319 62 l 266 9 l 39 333 l 266 655 l 318 598 l 189 335 m 434 335 l 563 62 l 510 9 l 283 333 l 510 655 l 563 598 l 434 335 "},"D":{"x_min":87.109375,"x_max":969,"ha":1011,"o":"m 98 220 l 98 465 q 98 741 98 649 q 87 929 98 834 l 212 929 l 277 929 l 434 929 q 522 929 479 929 q 610 929 566 929 q 878 797 787 912 q 969 497 969 683 q 817 111 969 222 q 384 0 665 0 l 198 0 l 87 0 q 98 118 98 59 q 98 220 98 177 m 407 92 q 647 195 569 92 q 725 468 725 298 q 651 744 725 652 q 399 837 577 837 l 327 837 l 327 604 l 327 101 q 366 94 346 97 q 407 92 386 92 "},"w":{"x_min":6.8125,"x_max":1027.640625,"ha":1021,"o":"m 296 2 q 264 2 276 2 q 210 0 253 2 l 6 662 q 75 662 32 662 q 126 662 118 662 q 193 662 151 662 q 243 662 235 662 q 352 236 287 456 l 431 504 l 475 666 q 529 662 492 666 q 568 659 566 659 q 624 662 586 659 q 664 666 662 666 q 698 519 681 585 q 733 382 714 453 l 774 236 l 838 474 q 858 554 845 500 q 882 665 871 609 q 920 662 899 665 q 954 659 941 659 q 997 662 978 659 q 1027 666 1015 665 l 937 421 l 796 1 q 744 1 760 1 q 713 2 728 2 q 664 2 698 2 q 630 2 631 2 l 551 286 l 511 421 q 383 2 446 220 q 329 2 347 2 q 296 2 311 2 "},"$":{"x_min":42.546875,"x_max":682,"ha":734,"o":"m 42 79 q 102 254 75 165 l 125 254 q 198 128 147 177 q 324 79 249 79 l 324 365 q 106 474 165 409 q 48 623 48 538 q 127 806 48 736 q 324 888 207 876 q 316 1008 324 947 q 337 1005 323 1007 q 363 1001 352 1003 q 384 1003 374 1003 q 408 1008 394 1003 q 403 953 403 982 q 403 890 403 925 q 544 867 493 879 q 648 822 595 854 q 588 665 612 745 l 558 665 q 400 816 527 788 l 400 553 q 623 444 565 510 q 682 288 682 378 q 602 91 682 167 q 399 0 523 15 l 399 -62 q 400 -97 399 -84 q 405 -135 401 -109 l 362 -135 l 318 -135 q 323 -69 323 -112 q 323 0 323 -26 q 42 79 170 0 m 324 816 q 238 777 272 816 q 205 685 205 738 q 240 614 205 644 q 324 576 276 585 l 324 816 m 523 212 q 488 299 523 267 q 396 347 454 330 l 396 77 q 487 122 451 88 q 523 212 523 156 "},"‧":{"x_min":103,"x_max":336,"ha":438,"o":"m 218 653 q 300 616 265 653 q 336 532 336 580 q 300 450 336 485 q 218 416 265 416 q 137 449 171 416 q 103 533 103 482 q 137 618 103 583 q 218 653 171 653 "},"\\":{"x_min":-31.3125,"x_max":413.78125,"ha":376,"o":"m -31 1023 l 47 1023 l 413 -126 l 332 -126 l -31 1023 "},"Ι":{"x_min":92.75,"x_max":345.609375,"ha":438,"o":"m 105 402 q 105 715 105 609 q 92 931 105 822 q 158 925 122 928 q 216 922 194 922 q 286 926 240 922 q 345 931 332 931 q 332 716 332 819 q 332 465 332 613 q 332 221 332 326 q 345 3 332 116 q 266 3 322 3 q 209 3 211 3 l 92 3 q 105 200 105 89 q 105 402 105 311 "},"Ύ":{"x_min":-26.890625,"x_max":1269.5625,"ha":1222,"o":"m 622 649 q 554 771 609 671 q 460 929 499 871 l 580 929 q 670 929 607 929 q 740 929 733 929 q 828 740 788 824 q 922 553 868 656 q 1019 730 971 635 q 1113 929 1066 824 l 1186 929 q 1227 930 1200 929 q 1269 932 1254 932 q 1121 689 1189 812 q 981 420 1053 566 l 981 143 l 981 3 l 895 3 l 746 3 q 746 138 746 50 q 746 237 746 226 l 746 402 l 622 649 m 155 954 q 207 1002 188 987 q 254 1018 227 1018 q 306 995 286 1018 q 327 944 327 973 q 308 897 327 916 q 260 863 290 878 l 39 755 l -26 755 l 155 954 "},"’":{"x_min":69.671875,"x_max":331,"ha":366,"o":"m 69 528 l 148 848 q 179 918 155 888 q 239 948 204 948 q 304 923 277 948 q 331 861 331 899 q 325 829 331 845 q 310 796 320 813 l 109 512 l 69 528 "},"Ν":{"x_min":91,"x_max":911.625,"ha":989,"o":"m 91 444 q 91 645 91 523 q 91 787 91 767 l 91 929 l 174 929 l 263 929 q 513 620 387 773 q 770 324 639 467 l 770 581 q 770 763 770 641 q 770 931 770 885 q 808 927 794 929 q 836 926 821 926 q 872 927 858 926 q 911 933 885 929 q 898 837 898 888 q 898 737 898 787 q 898 460 898 599 q 898 184 898 322 q 898 106 898 147 q 902 0 898 66 q 858 4 883 2 q 821 7 834 7 q 778 4 795 7 q 741 0 761 2 q 486 308 618 151 q 219 617 354 466 l 219 241 l 219 0 q 191 4 209 1 q 156 7 172 7 q 116 4 131 7 q 91 0 101 2 q 91 208 91 105 q 91 444 91 311 "},"-":{"x_min":59,"x_max":376,"ha":439,"o":"m 66 334 q 62 383 66 352 q 59 422 59 415 l 376 422 l 376 333 l 376 247 l 59 247 q 62 296 59 265 q 66 334 66 327 "},"Q":{"x_min":39,"x_max":1076,"ha":1106,"o":"m 39 456 q 186 818 39 688 q 565 948 333 948 q 925 828 787 948 q 1064 485 1064 709 q 983 185 1064 313 q 744 10 903 56 l 865 -72 q 1076 -182 959 -129 l 1076 -200 q 985 -241 1032 -217 q 888 -294 937 -265 q 722 -160 808 -226 q 522 -13 636 -94 q 170 109 301 -13 q 39 456 39 232 m 550 72 q 757 193 692 72 q 823 471 823 314 q 757 741 823 623 q 554 859 692 859 q 347 740 413 859 q 281 464 281 621 q 346 192 281 312 q 550 72 411 72 "},"ς":{"x_min":48,"x_max":634.0625,"ha":675,"o":"m 413 599 q 301 538 344 599 q 259 403 259 477 q 351 244 259 303 q 522 151 436 196 q 615 -18 615 88 q 517 -214 615 -140 q 297 -289 419 -289 q 286 -199 297 -247 q 313 -203 291 -199 q 347 -208 335 -208 q 432 -176 394 -208 q 475 -96 469 -145 q 318 60 475 -18 q 105 178 162 138 q 48 352 48 219 q 151 589 48 499 q 401 680 254 680 q 517 665 461 680 q 634 622 572 650 q 604 532 613 560 q 585 465 594 503 l 548 465 q 503 562 536 525 q 413 599 470 599 "},"M":{"x_min":31.28125,"x_max":1142,"ha":1192,"o":"m 103 465 l 164 932 q 206 928 186 928 q 255 928 227 928 q 303 930 272 928 q 351 932 334 932 q 432 709 401 789 q 493 558 464 628 q 596 316 522 488 l 763 690 q 854 932 818 808 q 901 929 869 932 q 947 926 932 926 q 1007 929 986 926 q 1038 932 1027 932 l 1083 473 q 1108 240 1095 354 q 1142 3 1121 127 q 1073 3 1117 3 q 1020 3 1030 3 q 950 3 995 3 q 897 3 906 3 q 877 291 897 143 l 848 616 q 717 317 786 480 q 585 0 647 154 l 540 0 l 490 0 q 400 218 455 87 q 310 426 345 349 q 231 605 276 503 l 187 229 q 181 109 181 173 q 181 0 181 44 q 131 3 161 0 q 97 7 100 7 q 59 4 76 7 q 31 0 42 1 q 103 465 76 258 "},"Ψ":{"x_min":82.921875,"x_max":1077.078125,"ha":1161,"o":"m 305 708 q 305 639 305 686 q 305 569 305 593 q 337 407 305 462 q 463 353 369 353 l 463 484 q 463 735 463 568 q 463 932 463 902 q 520 925 484 928 q 575 922 555 922 q 645 927 600 922 q 697 931 691 931 q 697 777 697 877 q 697 666 697 677 l 697 353 q 790 378 753 353 q 841 457 827 404 q 855 582 855 511 q 855 670 855 652 q 849 811 855 720 q 844 932 844 901 q 908 927 864 932 q 965 922 951 922 q 1019 926 983 922 q 1077 930 1056 930 q 1073 869 1073 904 q 1073 801 1073 834 l 1073 737 l 1073 686 l 1073 609 q 975 354 1073 432 q 698 261 878 277 q 698 126 698 219 q 698 3 698 33 q 633 3 677 3 q 580 3 589 3 q 506 3 551 3 q 461 3 461 3 q 461 134 461 40 q 461 261 461 229 q 183 358 279 261 q 87 651 87 455 l 87 804 l 87 820 q 82 930 87 881 q 137 926 100 930 q 193 922 174 922 q 252 927 215 922 q 315 932 290 932 q 305 813 305 876 q 305 708 305 750 "},"C":{"x_min":42,"x_max":873.796875,"ha":882,"o":"m 575 855 q 355 743 432 855 q 279 478 279 631 q 353 202 279 322 q 574 82 428 82 q 725 109 654 82 q 838 194 796 136 l 860 184 q 843 120 850 152 q 828 45 837 88 q 696 -2 770 12 q 544 -18 621 -18 q 180 109 319 -18 q 42 463 42 236 q 186 818 42 689 q 557 948 331 948 q 708 931 639 948 q 873 875 777 914 q 848 792 861 839 q 828 709 835 745 l 809 709 q 719 817 782 779 q 575 855 656 855 "},"œ":{"x_min":35,"x_max":1129,"ha":1173,"o":"m 379 -15 q 128 79 222 -15 q 35 334 35 173 q 128 586 35 490 q 374 683 221 683 q 617 606 504 683 q 720 664 663 645 q 841 683 776 683 q 1053 600 978 683 q 1129 377 1129 517 l 1129 332 l 721 332 q 777 164 721 231 q 931 97 833 97 q 1088 159 1021 97 l 1104 151 q 1088 101 1093 119 q 1071 40 1082 83 q 970 -1 1028 11 q 852 -15 912 -15 q 720 3 778 -15 q 615 68 662 21 q 510 4 572 24 q 379 -15 448 -15 m 929 411 l 929 445 q 901 581 929 541 q 827 621 874 621 q 741 557 761 621 q 721 411 721 494 l 929 411 m 270 171 q 308 80 279 115 q 387 45 336 45 q 443 62 415 45 q 487 115 471 79 q 509 204 504 151 q 515 329 515 257 q 505 475 515 408 q 466 577 495 542 q 385 612 436 612 q 287 552 320 612 q 265 470 272 520 q 258 329 258 420 q 260 244 258 269 q 270 171 262 219 "},"!":{"x_min":101,"x_max":334,"ha":436,"o":"m 218 221 q 299 187 265 221 q 334 104 334 154 q 299 19 334 54 q 218 -15 265 -15 q 135 19 170 -15 q 101 103 101 53 q 135 186 101 151 q 218 221 169 221 m 111 817 q 139 909 111 871 q 219 948 168 948 q 297 920 268 948 q 327 846 327 893 q 318 741 327 795 q 299 627 310 687 l 271 462 q 248 296 255 369 l 189 296 q 111 817 150 556 "},"ç":{"x_min":35,"x_max":609.5625,"ha":646,"o":"m 413 599 q 299 527 338 599 q 261 372 261 456 q 305 175 261 264 q 448 87 350 87 q 529 98 488 87 q 597 132 570 110 l 606 125 l 576 19 q 491 -7 538 0 q 397 -16 443 -16 q 138 75 241 -16 q 35 324 35 167 q 137 582 35 484 q 399 680 240 680 q 609 636 508 680 q 575 459 589 549 l 551 459 q 506 560 541 521 q 413 599 472 599 m 171 -202 q 270 -231 246 -226 q 326 -236 294 -236 q 374 -223 354 -236 q 394 -184 394 -211 q 376 -145 394 -161 q 334 -128 358 -128 q 313 -130 322 -128 q 295 -135 304 -132 l 295 1 l 351 1 l 351 -76 l 410 -76 q 486 -109 456 -81 q 517 -184 517 -137 q 478 -274 517 -239 q 380 -310 439 -310 q 263 -299 319 -310 q 148 -265 206 -289 l 171 -202 "},"{":{"x_min":102,"x_max":576,"ha":670,"o":"m 576 844 l 529 844 q 459 821 477 844 q 437 785 440 798 q 434 752 434 773 l 434 712 l 434 552 q 408 424 434 465 q 298 353 382 383 q 404 287 375 335 q 434 155 434 238 l 434 -5 q 456 -105 434 -74 q 544 -136 479 -136 l 576 -136 l 576 -272 l 472 -272 q 336 -237 389 -272 q 275 -122 284 -202 l 275 -49 l 275 116 q 241 238 275 194 q 134 283 208 283 l 102 283 l 102 422 q 236 458 197 422 q 275 588 275 494 l 275 756 l 275 831 q 348 951 287 919 q 507 983 409 983 l 576 983 l 576 844 "},"X":{"x_min":-1.359375,"x_max":785.359375,"ha":766,"o":"m 166 241 l 295 435 l 14 929 q 92 929 38 929 q 152 929 147 929 q 230 929 175 929 q 292 929 285 929 q 308 893 302 906 q 351 802 314 880 l 436 638 q 536 805 503 748 q 601 931 570 862 q 642 928 615 931 q 684 926 669 926 q 725 928 698 926 q 767 931 752 931 q 671 799 695 832 q 604 701 647 766 l 492 531 l 785 3 q 699 3 760 3 q 634 3 638 3 l 506 3 l 461 108 l 349 326 q 260 174 310 263 q 167 0 210 84 q 115 3 151 0 q 76 7 80 7 q 31 4 51 7 q -1 0 10 1 l 166 241 "},"ô":{"x_min":31,"x_max":727.859375,"ha":759,"o":"m 387 683 q 633 588 540 683 q 727 337 727 494 q 635 79 727 173 q 379 -15 542 -15 q 126 78 222 -15 q 31 333 31 172 q 127 590 31 497 q 387 683 224 683 m 318 1002 l 440 1002 l 589 755 l 523 755 l 379 877 l 232 755 l 169 755 l 318 1002 m 263 174 q 300 85 271 120 q 379 50 330 50 q 456 84 428 50 q 490 156 484 119 q 500 215 496 194 q 506 335 506 272 q 500 451 506 395 q 490 510 496 472 q 457 582 484 548 q 379 616 430 616 q 289 564 313 616 q 259 460 264 513 q 254 333 254 406 q 254 244 254 270 q 263 174 254 217 "},"#":{"x_min":29.9375,"x_max":999.0625,"ha":1028,"o":"m 607 975 l 511 699 l 671 699 l 766 975 l 911 975 l 815 699 l 999 699 l 951 564 l 767 564 l 711 404 l 902 404 l 856 271 l 665 271 l 568 -5 l 424 -5 l 519 271 l 360 271 l 265 -5 l 119 -5 l 216 271 l 29 271 l 77 404 l 264 404 l 319 564 l 125 564 l 171 699 l 367 699 l 462 975 l 607 975 m 405 403 l 570 403 l 626 564 l 461 564 l 405 403 "},"ι":{"x_min":79.109375,"x_max":309.609375,"ha":389,"o":"m 90 125 l 90 542 l 79 665 q 137 660 103 660 q 193 660 170 660 q 260 661 234 660 q 309 665 286 662 q 299 586 302 615 q 296 522 296 557 l 296 113 q 298 72 296 88 q 308 1 300 56 l 192 1 l 80 1 q 86 66 83 30 q 90 125 90 103 "},"Ά":{"x_min":-26.890625,"x_max":964,"ha":943,"o":"m 238 321 q 320 529 271 399 q 403 750 370 659 q 475 945 437 842 l 543 945 l 611 945 q 789 449 704 684 q 964 1 875 215 l 833 1 l 699 1 l 671 91 l 618 261 q 521 261 570 261 q 425 261 472 261 l 329 261 q 241 1 290 134 l 152 1 l 102 1 l 238 321 m 155 953 q 207 1001 188 986 q 254 1017 227 1017 q 306 994 286 1017 q 327 943 327 972 q 308 897 327 915 q 260 863 290 878 l 39 755 l -26 755 l 155 953 m 478 369 l 585 369 q 539 509 562 447 q 479 661 516 572 q 369 369 420 518 l 478 369 "},")":{"x_min":70.5625,"x_max":375,"ha":439,"o":"m 223 366 q 188 655 223 520 q 74 905 153 791 l 118 948 q 311 690 247 826 q 375 381 375 555 q 311 63 375 201 q 112 -201 247 -74 l 70 -158 q 188 81 153 -48 q 223 366 223 211 "},"ε":{"x_min":54,"x_max":588.6875,"ha":643,"o":"m 501 503 q 463 579 492 548 q 389 611 434 611 q 317 578 345 611 q 290 500 290 545 q 312 431 290 461 q 371 396 334 401 l 441 396 l 441 373 q 441 337 441 350 q 442 317 441 324 q 406 320 431 320 q 316 282 356 320 q 277 196 277 245 q 316 102 277 145 q 405 59 356 59 q 489 88 452 59 q 561 167 526 117 l 588 156 q 584 130 585 145 q 583 104 583 115 q 583 82 583 90 q 588 53 583 74 q 345 -15 477 -15 q 143 30 232 -15 q 54 176 54 75 q 103 290 54 244 q 228 361 153 336 q 125 421 164 386 q 87 516 87 457 q 163 643 87 603 q 334 683 239 683 q 581 612 471 683 q 554 557 565 583 q 539 503 543 530 l 501 503 "},"Δ":{"x_min":10.890625,"x_max":939.171875,"ha":953,"o":"m 480 925 q 521 927 499 925 q 555 931 543 929 q 676 598 620 745 q 799 296 732 452 q 939 4 867 140 q 706 4 861 4 q 472 4 551 4 q 242 4 396 4 q 10 4 88 4 q 230 469 123 223 q 406 931 336 716 q 439 927 420 929 q 480 925 458 925 m 307 373 q 212 127 257 259 q 416 122 307 122 q 531 122 458 122 q 623 122 604 122 q 586 229 604 180 q 528 391 568 277 l 424 645 l 307 373 "},"â":{"x_min":44,"x_max":693.375,"ha":692,"o":"m 233 -15 q 97 35 151 -15 q 44 169 44 86 q 208 352 44 301 q 394 422 373 404 q 402 440 402 433 q 366 540 402 502 q 270 578 331 578 q 137 511 181 578 l 132 511 l 113 586 q 225 658 160 633 q 357 684 289 684 q 531 624 468 684 q 594 452 594 565 l 594 214 q 594 167 594 185 q 598 124 594 149 q 614 88 602 100 q 646 77 627 77 q 666 81 654 77 q 689 90 678 85 l 693 40 q 631 3 663 15 q 553 -12 599 -7 q 472 7 509 -12 q 413 64 434 26 q 233 -15 345 -15 m 286 1003 l 406 1003 l 555 755 l 492 755 l 345 877 l 200 755 l 136 755 l 286 1003 m 236 200 q 256 128 236 158 q 315 99 276 99 q 380 131 360 99 q 401 211 401 164 l 401 351 q 282 302 328 337 q 236 200 236 266 "},"}":{"x_min":90.71875,"x_max":567,"ha":669,"o":"m 123 983 q 315 955 237 983 q 393 831 393 927 l 393 756 l 393 588 q 412 477 393 512 q 462 432 432 442 q 527 423 493 423 q 567 423 562 423 l 567 283 q 432 249 471 283 q 394 116 394 216 l 394 -49 q 364 -204 394 -147 q 277 -267 335 -260 q 175 -275 219 -275 q 90 -275 130 -275 l 90 -136 q 197 -120 160 -136 q 235 -43 235 -104 l 235 -4 l 235 155 q 263 285 235 241 q 372 353 292 328 q 262 420 290 378 q 235 552 235 463 l 235 712 q 222 804 235 770 q 162 843 210 837 l 90 843 l 90 983 l 123 983 "},"‰":{"x_min":27,"x_max":1586,"ha":1615,"o":"m 259 910 q 426 844 362 910 q 490 672 490 779 q 426 496 490 562 q 253 431 363 431 q 88 498 150 431 q 27 669 27 565 q 91 843 27 776 q 259 910 155 910 m 813 1015 l 898 1015 l 266 -125 l 181 -125 l 813 1015 m 832 463 q 999 401 936 463 q 1063 230 1063 339 q 1002 51 1063 117 q 828 -15 941 -15 q 664 51 728 -15 q 600 222 600 118 q 661 398 600 333 q 832 463 723 463 m 1355 463 q 1523 400 1460 463 q 1586 229 1586 337 q 1525 51 1586 117 q 1351 -15 1464 -15 q 1185 51 1249 -15 q 1121 222 1121 118 q 1185 396 1121 329 q 1355 463 1249 463 m 763 112 q 781 57 763 83 q 829 31 799 31 q 876 59 855 31 q 898 114 898 87 q 904 222 904 162 q 904 275 904 248 q 897 338 899 312 q 878 389 894 364 q 831 414 862 414 q 795 404 810 414 q 775 375 780 394 q 760 312 764 347 q 757 241 757 276 l 757 222 q 757 183 757 201 q 763 112 757 165 m 192 561 q 209 505 192 532 q 255 478 227 478 q 290 489 274 478 q 315 525 306 501 q 327 586 324 548 q 331 669 331 625 q 331 723 331 697 q 326 780 331 749 q 306 836 322 811 q 259 861 291 861 q 200 820 218 861 q 187 752 190 786 q 184 669 184 719 q 192 561 184 615 m 1289 112 q 1306 56 1289 82 q 1354 31 1324 31 q 1389 42 1374 31 q 1413 76 1404 53 q 1425 138 1422 100 q 1429 222 1429 176 q 1429 275 1429 248 q 1420 344 1424 312 q 1398 395 1416 376 q 1356 414 1380 414 q 1301 379 1313 414 q 1286 301 1290 344 q 1282 222 1282 258 q 1282 164 1282 190 q 1289 112 1282 139 "},"Ä":{"x_min":-26.96875,"x_max":831.53125,"ha":812,"o":"m 107 323 q 183 511 145 413 q 269 740 222 610 q 344 946 317 870 l 412 946 l 482 946 q 653 463 571 686 q 831 1 734 240 l 703 1 l 567 1 l 540 91 l 487 261 q 391 261 440 261 q 295 261 343 261 l 198 261 l 111 0 q 73 1 94 1 q 42 1 53 1 l 22 1 l -26 1 l 107 323 m 279 1241 q 345 1213 317 1241 q 373 1147 373 1186 q 347 1078 373 1107 q 281 1049 321 1049 q 212 1076 241 1049 q 184 1147 184 1104 q 211 1213 184 1186 q 279 1241 239 1241 m 532 1241 q 598 1214 571 1241 q 626 1147 626 1188 q 600 1077 626 1106 q 535 1049 575 1049 q 468 1076 497 1049 q 440 1147 440 1104 q 467 1213 440 1185 q 532 1241 494 1241 m 345 369 l 453 369 q 407 511 430 451 q 347 661 385 571 q 238 369 292 515 l 345 369 "},"a":{"x_min":46,"x_max":693.734375,"ha":691,"o":"m 232 -15 q 98 35 150 -15 q 46 169 46 86 q 209 352 46 301 q 393 422 372 404 q 400 440 400 433 q 365 541 400 504 q 267 579 330 579 q 192 561 226 579 q 137 510 158 544 l 131 510 l 111 585 q 355 683 213 683 q 530 624 468 683 q 593 452 593 566 l 593 215 q 593 170 593 191 q 594 119 593 148 q 643 76 603 76 q 663 79 651 76 q 688 88 676 83 l 693 40 q 552 -11 631 -11 q 468 7 505 -11 q 411 63 432 26 q 332 4 378 23 q 232 -15 285 -15 m 235 198 q 255 127 235 158 q 313 97 275 97 q 377 131 357 97 q 398 212 398 165 l 398 351 q 280 302 326 337 q 235 198 235 266 "},"—":{"x_min":222,"x_max":1116,"ha":1338,"o":"m 222 421 l 1116 421 l 1116 278 l 222 278 l 222 421 "},"=":{"x_min":166,"x_max":949,"ha":1115,"o":"m 949 615 l 949 484 l 166 484 l 166 615 l 949 615 m 949 329 l 949 196 l 166 196 l 166 329 l 949 329 "},"N":{"x_min":91,"x_max":911.625,"ha":989,"o":"m 91 444 q 91 645 91 523 q 91 787 91 767 l 91 929 l 174 929 l 263 929 q 513 620 387 773 q 770 324 639 467 l 770 581 q 770 763 770 641 q 770 931 770 885 q 808 927 794 929 q 836 926 821 926 q 872 927 858 926 q 911 933 885 929 q 898 837 898 888 q 898 737 898 787 q 898 460 898 599 q 898 184 898 322 q 898 106 898 147 q 902 0 898 66 q 858 4 883 2 q 821 7 834 7 q 778 4 795 7 q 741 0 761 2 q 486 308 618 151 q 219 617 354 466 l 219 241 l 219 0 q 191 4 209 1 q 156 7 172 7 q 116 4 131 7 q 91 0 101 2 q 91 208 91 105 q 91 444 91 311 "},"ρ":{"x_min":48,"x_max":746,"ha":777,"o":"m 159 -368 q 48 -373 108 -368 q 50 -290 48 -342 q 53 -223 53 -238 l 53 169 l 53 315 q 142 585 53 488 q 399 683 231 683 q 650 589 555 683 q 746 336 746 495 q 669 89 746 194 q 458 -15 593 -15 q 263 65 341 -15 l 263 -208 q 263 -268 263 -241 q 273 -373 263 -295 q 196 -368 219 -368 q 159 -368 173 -368 m 272 347 q 282 196 272 264 q 320 109 292 142 q 399 77 348 77 q 486 120 467 77 q 514 212 506 164 q 523 347 523 260 q 518 431 523 388 q 510 511 514 473 q 476 582 505 549 q 396 615 446 615 q 306 566 336 615 q 276 452 276 517 q 272 372 272 412 l 272 347 "},"2":{"x_min":32.5625,"x_max":692.34375,"ha":733,"o":"m 32 75 q 232 249 149 167 q 372 431 315 330 q 430 652 430 533 q 406 772 430 723 q 319 822 382 822 q 216 767 247 822 q 167 617 186 712 l 152 617 q 43 743 106 691 q 185 867 103 823 q 366 911 268 911 q 575 847 491 911 q 660 658 660 783 q 607 479 660 548 q 297 197 555 411 l 421 197 l 542 197 l 692 197 q 676 94 676 148 q 682 39 676 66 q 692 3 689 11 q 504 3 617 3 q 372 3 391 3 q 178 3 296 3 q 43 3 59 3 l 32 75 "},"ü":{"x_min":78,"x_max":704,"ha":792,"o":"m 285 -15 q 137 41 196 -15 q 78 188 78 98 l 78 337 q 78 509 78 394 q 78 666 78 623 q 132 660 106 660 q 182 660 158 660 q 237 661 207 660 q 296 666 268 663 q 286 454 286 569 l 286 384 l 286 279 q 311 146 286 181 q 386 111 337 111 q 456 147 431 111 q 489 234 482 184 l 489 330 q 489 498 489 386 q 489 666 489 611 q 543 661 508 661 q 601 661 578 661 q 659 662 629 661 q 704 666 689 663 q 704 479 704 598 q 704 326 704 359 q 704 156 704 270 q 704 3 704 43 l 607 3 l 502 3 l 502 95 q 403 15 460 45 q 285 -15 346 -15 m 270 976 q 333 948 306 976 q 361 878 361 920 q 335 811 361 839 q 271 784 309 784 q 203 811 232 784 q 175 878 175 839 q 202 947 175 918 q 270 976 230 976 m 523 976 q 589 948 562 976 q 617 878 617 920 q 590 812 617 841 q 525 784 563 784 q 457 811 487 784 q 428 878 428 839 q 455 947 428 918 q 523 976 483 976 "},"Z":{"x_min":24,"x_max":814.453125,"ha":813,"o":"m 24 54 q 182 311 79 143 q 347 582 285 480 q 485 812 409 684 l 287 812 q 96 800 181 812 l 103 852 q 96 929 103 894 l 434 929 q 643 929 498 929 q 798 929 788 929 l 798 902 q 561 518 681 714 q 324 121 441 321 l 554 121 q 691 121 640 121 q 814 136 742 121 q 809 43 809 96 l 809 3 q 593 3 744 3 q 433 3 441 3 q 198 3 362 3 q 24 3 34 3 l 24 54 "},"u":{"x_min":78,"x_max":704,"ha":792,"o":"m 285 -15 q 136 41 194 -15 q 78 189 78 97 l 78 336 q 78 508 78 393 q 78 666 78 623 q 138 659 107 662 q 182 657 169 657 q 248 661 215 657 q 290 666 281 665 l 290 454 l 290 382 l 290 279 q 315 148 290 183 q 389 113 341 113 q 458 147 435 113 q 489 235 480 182 l 489 332 q 489 498 489 387 q 489 666 489 609 q 553 659 523 662 q 601 657 584 657 q 660 661 629 657 q 704 665 691 665 q 704 496 704 609 q 704 326 704 382 q 704 164 704 272 q 704 3 704 55 l 606 3 l 502 3 l 502 94 q 404 15 463 46 q 285 -15 346 -15 "},"k":{"x_min":84,"x_max":718.3125,"ha":740,"o":"m 84 549 q 84 825 84 647 q 84 1022 84 1004 q 180 1017 123 1017 q 295 1022 247 1017 q 295 811 295 958 q 295 601 295 664 l 295 387 q 417 509 363 444 q 534 664 471 575 q 583 664 550 664 q 632 664 616 664 l 695 664 l 700 655 l 616 575 l 466 423 q 624 153 533 303 l 718 2 q 648 2 692 2 q 595 2 603 2 q 526 2 568 2 q 477 2 484 2 q 378 174 432 82 q 292 328 324 265 q 292 140 292 272 q 292 1 292 8 l 187 1 l 84 1 q 84 320 84 114 q 84 549 84 525 "},"Η":{"x_min":97,"x_max":931,"ha":1028,"o":"m 97 286 l 97 459 q 97 649 97 532 q 97 784 97 766 l 97 930 q 154 928 124 930 q 212 926 185 926 q 274 926 238 926 q 334 931 310 926 q 334 817 334 894 q 334 713 334 741 l 334 562 l 507 562 l 696 562 l 696 712 q 696 812 696 778 q 686 931 696 846 q 751 926 716 926 q 814 926 787 926 q 873 926 840 926 q 931 931 907 926 q 931 689 931 856 q 931 464 931 523 q 931 225 931 391 q 931 3 931 58 l 814 3 q 751 3 793 3 q 686 3 709 3 q 696 100 696 47 q 696 203 696 153 l 696 447 q 586 447 655 447 q 506 447 517 447 q 405 447 468 447 q 334 447 342 447 l 334 203 q 334 97 334 168 q 334 3 334 26 q 267 3 319 3 q 212 3 216 3 l 97 3 q 97 146 97 40 q 97 286 97 252 "},"Α":{"x_min":-28.578125,"x_max":833,"ha":813,"o":"m 107 321 q 189 529 140 399 q 272 750 239 659 q 344 945 306 842 l 412 945 l 480 945 q 658 449 573 684 q 833 1 744 215 l 702 1 l 568 1 l 540 91 l 487 261 q 390 261 439 261 q 294 261 341 261 l 198 261 q 110 1 159 134 l 21 1 l -28 1 l 107 321 m 347 369 l 454 369 q 408 509 431 447 q 348 661 385 572 q 238 369 289 518 l 347 369 "},"ß":{"x_min":86,"x_max":761,"ha":795,"o":"m 194 2 l 86 2 q 86 119 86 45 q 86 211 86 194 l 86 351 l 86 650 q 161 926 86 830 q 410 1023 236 1023 q 591 984 512 1023 q 671 853 671 945 q 595 712 671 785 q 520 600 520 639 q 532 562 520 582 q 563 532 545 541 l 675 446 q 761 274 761 378 q 677 66 761 149 q 469 -16 593 -16 q 365 7 420 -16 l 395 160 l 409 160 q 453 87 427 112 q 525 63 479 63 q 588 90 563 63 q 614 155 614 117 q 495 315 614 218 q 370 475 376 412 q 451 649 370 546 q 532 821 532 753 q 502 907 532 872 q 422 942 473 942 q 325 891 358 942 q 293 769 293 840 q 293 494 293 601 q 293 237 293 386 q 293 2 293 87 l 194 2 "},"é":{"x_min":41,"x_max":671,"ha":715,"o":"m 474 97 q 556 111 523 97 q 631 159 589 126 l 649 151 q 631 95 639 124 q 616 40 622 66 q 512 -1 566 11 q 396 -15 457 -15 q 139 79 237 -15 q 41 336 41 173 q 135 586 41 490 q 379 683 230 683 q 596 601 522 683 q 671 373 671 520 l 671 332 l 262 332 q 320 164 262 231 q 474 97 377 97 m 401 952 q 450 1000 428 984 q 502 1017 472 1017 q 553 994 532 1017 q 575 944 575 971 q 555 896 575 916 q 506 862 535 876 l 287 754 l 219 754 l 401 952 m 469 411 q 472 444 472 422 q 450 567 472 513 q 370 621 429 621 q 286 563 311 621 q 261 437 261 505 l 261 411 l 469 411 "},"s":{"x_min":41.828125,"x_max":532,"ha":571,"o":"m 93 197 q 152 95 113 133 q 251 57 191 57 q 332 77 295 57 q 369 140 369 98 q 209 259 369 195 q 50 456 50 323 q 126 623 50 563 q 312 683 203 683 q 402 671 359 683 q 504 638 446 660 l 454 486 l 440 486 q 389 575 424 542 q 297 608 355 608 q 230 588 259 608 q 201 530 201 569 q 366 417 201 479 q 532 227 532 356 q 455 48 532 112 q 261 -15 378 -15 q 145 -6 197 -15 q 41 26 93 3 l 74 197 l 93 197 "},"B":{"x_min":89.390625,"x_max":758,"ha":799,"o":"m 103 207 l 103 464 q 103 714 103 605 q 89 930 103 823 l 245 930 l 409 930 q 642 882 549 930 q 736 708 736 835 q 678 568 736 619 q 531 504 621 516 l 531 492 q 691 432 624 492 q 758 277 758 373 q 665 70 758 139 q 429 1 572 1 l 245 1 q 149 1 207 1 q 89 1 90 1 q 98 104 94 50 q 103 207 103 157 m 509 698 q 470 803 509 763 q 368 844 432 844 l 330 839 q 321 687 321 766 l 321 540 q 456 578 403 540 q 509 698 509 617 m 373 87 q 481 136 441 87 q 521 257 521 186 q 475 390 521 337 q 354 444 430 444 l 326 444 l 326 275 l 326 91 l 373 87 "},"…":{"x_min":91,"x_max":1032,"ha":1159,"o":"m 191 192 q 262 161 231 192 q 294 89 294 130 q 263 17 294 47 q 191 -12 232 -12 q 120 17 150 -12 q 91 89 91 46 q 120 161 91 130 q 191 192 150 192 m 563 192 q 633 161 602 192 q 665 89 665 130 q 634 17 665 47 q 563 -12 603 -12 q 490 17 520 -12 q 461 89 461 46 q 490 161 461 130 q 563 192 520 192 m 929 192 q 1000 161 969 192 q 1032 89 1032 130 q 1001 17 1032 47 q 929 -12 970 -12 q 858 17 888 -12 q 829 89 829 46 q 858 161 829 130 q 929 192 888 192 "},"?":{"x_min":91.15625,"x_max":528,"ha":585,"o":"m 290 220 q 369 185 333 220 q 406 103 406 151 q 371 22 406 60 q 290 -16 336 -16 q 206 18 241 -16 q 172 102 172 52 q 207 182 172 145 q 290 220 242 220 m 424 288 q 370 277 403 279 q 332 274 337 274 q 197 328 256 274 q 139 459 139 382 q 233 619 139 529 q 328 776 328 708 q 304 837 328 811 q 247 863 280 863 q 171 838 206 863 q 117 774 136 813 l 99 776 q 91 890 99 842 q 288 948 178 948 q 457 889 387 948 q 528 729 528 831 q 420 553 528 643 q 313 406 313 463 q 331 362 313 377 q 378 348 349 348 q 412 352 395 348 q 439 357 430 356 l 424 288 "},"H":{"x_min":97,"x_max":939.609375,"ha":1028,"o":"m 97 284 l 97 460 q 97 651 97 534 q 97 787 97 767 l 97 931 q 152 926 106 931 q 219 922 197 922 q 284 926 249 922 q 340 930 320 930 q 332 827 332 885 q 332 710 332 768 l 332 561 l 507 561 l 697 561 l 697 711 q 686 931 697 833 q 753 926 707 931 q 814 922 799 922 q 879 926 836 922 q 939 931 923 931 q 926 702 926 828 q 926 461 926 576 q 926 218 926 306 q 939 3 926 129 q 868 3 913 3 q 814 3 822 3 q 741 3 789 3 q 686 3 694 3 q 694 97 694 36 q 694 202 694 159 l 694 447 q 588 447 664 447 q 506 447 513 447 l 331 447 l 331 202 q 331 89 331 121 q 340 3 331 57 q 275 3 318 3 q 212 3 231 3 q 151 3 192 3 q 97 3 110 3 q 97 146 97 40 q 97 284 97 252 "},"ν":{"x_min":9.109375,"x_max":645,"ha":680,"o":"m 461 438 q 454 504 461 477 q 413 641 448 531 q 628 670 518 659 q 645 581 645 626 q 602 412 645 494 l 530 270 q 453 107 477 160 q 409 0 429 53 q 367 4 395 0 q 324 8 338 8 q 284 4 311 8 q 241 0 256 0 q 162 235 205 110 q 83 458 119 360 q 9 666 48 555 q 71 660 40 663 q 126 658 101 658 q 181 660 149 658 q 240 666 213 663 q 395 184 294 449 q 445 328 429 276 q 461 438 461 381 "},"î":{"x_min":-15.28125,"x_max":404.171875,"ha":388,"o":"m 90 127 l 90 542 q 85 601 90 557 q 80 666 80 645 q 138 660 109 663 q 194 658 168 658 q 250 660 219 658 q 310 666 281 663 q 305 621 308 658 q 298 544 301 584 l 298 319 q 298 144 298 212 q 308 1 298 76 l 191 1 l 80 1 q 90 127 90 67 m 133 1002 l 253 1002 l 404 755 l 337 755 l 194 877 l 48 755 l -15 755 l 133 1002 "},"c":{"x_min":35,"x_max":610.453125,"ha":646,"o":"m 413 600 q 299 530 336 600 q 262 376 262 461 q 306 177 262 266 q 449 88 351 88 q 528 99 487 88 q 595 135 568 111 l 605 126 l 576 21 q 491 -5 536 3 q 396 -15 445 -15 q 137 76 240 -15 q 35 324 35 168 q 137 583 35 484 q 398 683 240 683 q 610 638 504 683 q 594 570 605 620 q 575 463 584 521 l 550 463 q 504 561 539 522 q 413 600 470 600 "},"¶":{"x_min":17.40625,"x_max":521,"ha":578,"o":"m 292 967 l 521 967 l 521 909 l 464 909 l 464 3 l 407 3 l 407 909 l 299 909 l 299 3 l 242 3 l 242 557 q 97 601 160 557 q 26 689 35 645 q 17 743 17 733 q 88 895 17 824 q 292 967 160 967 "},"β":{"x_min":84,"x_max":739,"ha":811,"o":"m 84 -114 q 84 188 84 -19 q 84 492 84 397 q 84 653 84 596 q 97 795 84 710 q 198 950 110 881 q 411 1020 286 1020 q 614 952 529 1020 q 699 770 699 885 q 658 634 699 689 q 543 542 617 578 q 687 438 635 506 q 739 273 739 369 q 668 68 739 152 q 481 -15 597 -15 q 382 0 427 -15 q 296 50 338 16 l 296 -105 l 296 -370 q 241 -364 273 -367 q 188 -362 210 -362 q 135 -364 165 -362 q 84 -370 105 -367 q 84 -237 84 -327 q 84 -114 84 -148 m 366 572 q 465 623 437 572 q 493 756 493 674 q 474 896 493 838 q 393 955 456 955 q 322 907 344 955 q 295 806 300 860 q 291 683 291 752 q 291 551 291 613 l 291 269 q 313 131 291 188 q 404 75 336 75 q 492 135 469 75 q 516 273 516 195 q 487 431 516 377 q 366 486 459 486 l 366 572 "},"Μ":{"x_min":31.28125,"x_max":1142,"ha":1192,"o":"m 103 465 l 164 932 q 206 928 186 928 q 255 928 227 928 q 303 930 272 928 q 351 932 334 932 q 432 709 401 789 q 493 558 464 628 q 596 316 522 488 l 763 690 q 854 932 818 808 q 901 929 869 932 q 947 926 932 926 q 1007 929 986 926 q 1038 932 1027 932 l 1083 473 q 1108 240 1095 354 q 1142 3 1121 127 q 1073 3 1117 3 q 1020 3 1030 3 q 950 3 995 3 q 897 3 906 3 q 877 291 897 143 l 848 616 q 717 317 786 480 q 585 0 647 154 l 540 0 l 490 0 q 400 218 455 87 q 310 426 345 349 q 231 605 276 503 l 187 229 q 181 109 181 173 q 181 0 181 44 q 131 3 161 0 q 97 7 100 7 q 59 4 76 7 q 31 0 42 1 q 103 465 76 258 "},"Ό":{"x_min":-26.90625,"x_max":1337,"ha":1379,"o":"m 838 948 q 1198 828 1060 948 q 1337 485 1337 709 q 1196 114 1337 244 q 814 -15 1055 -15 q 446 107 580 -15 q 312 465 312 229 q 457 822 312 696 q 838 948 603 948 m 155 953 q 207 1001 188 986 q 254 1017 227 1017 q 306 994 286 1017 q 327 943 327 972 q 308 897 327 915 q 260 863 290 878 l 39 755 l -26 755 l 155 953 m 823 72 q 1030 193 965 72 q 1096 471 1096 314 q 1030 741 1096 623 q 827 859 965 859 q 619 741 684 859 q 554 464 554 623 q 619 192 554 312 q 823 72 684 72 "},"Ή":{"x_min":-26.890625,"x_max":1306.609375,"ha":1395,"o":"m 464 284 l 464 460 q 464 651 464 534 q 464 787 464 767 l 464 931 q 519 926 473 931 q 586 922 564 922 q 651 926 616 922 q 707 930 687 930 q 699 827 699 885 q 699 710 699 768 l 699 561 l 874 561 l 1064 561 l 1064 710 q 1053 931 1064 832 q 1120 926 1074 931 q 1181 922 1166 922 q 1246 926 1203 922 q 1306 931 1290 931 q 1293 702 1293 828 q 1293 460 1293 576 q 1293 218 1293 306 q 1306 3 1293 129 q 1235 3 1280 3 q 1181 3 1189 3 q 1108 3 1156 3 q 1053 3 1061 3 q 1061 97 1061 36 q 1061 202 1061 159 l 1061 447 q 955 447 1031 447 q 873 447 880 447 l 698 447 l 698 202 q 698 89 698 121 q 707 3 698 57 q 642 3 685 3 q 579 3 598 3 q 518 3 559 3 q 464 3 477 3 q 464 146 464 40 q 464 284 464 252 m 155 953 q 207 1002 188 987 q 254 1018 227 1018 q 306 995 286 1018 q 327 944 327 973 q 308 897 327 916 q 260 863 290 878 l 39 755 l -26 755 l 155 953 "},"•":{"x_min":211,"x_max":789,"ha":1003,"o":"m 502 802 q 704 713 619 802 q 789 504 789 625 q 704 299 789 386 q 502 212 620 212 q 295 298 379 212 q 211 504 211 384 q 297 713 211 625 q 502 802 383 802 "},"¥":{"x_min":8.0625,"x_max":737.578125,"ha":748,"o":"m 38 255 l 38 333 l 157 333 l 272 333 l 272 412 q 137 412 221 412 q 38 412 54 412 l 38 494 q 129 486 85 486 l 224 486 l 141 644 q 86 751 112 703 q 8 883 59 798 q 80 883 33 883 q 135 883 127 883 q 209 883 164 883 q 260 883 254 883 q 425 528 342 695 q 514 706 469 612 q 597 887 560 801 q 628 885 612 885 q 661 885 644 885 l 737 885 q 591 642 640 728 q 507 490 541 556 l 709 490 l 709 412 q 572 412 655 412 q 476 412 488 412 l 476 333 l 709 333 l 709 255 q 593 255 677 255 q 480 255 508 255 q 480 123 480 213 q 480 2 480 32 l 379 2 q 310 2 357 2 q 259 2 263 2 q 269 125 269 59 q 269 255 269 192 q 137 255 230 255 q 38 255 44 255 "},"(":{"x_min":90,"x_max":396.71875,"ha":440,"o":"m 247 478 l 247 378 l 247 277 q 285 54 247 161 q 395 -158 323 -52 l 350 -201 q 156 57 222 -80 q 90 365 90 195 q 156 683 90 541 q 353 948 222 824 l 396 905 q 285 701 324 807 q 247 478 247 594 "},"U":{"x_min":88,"x_max":884,"ha":978,"o":"m 207 929 q 269 929 226 929 q 331 929 311 929 q 318 681 318 826 q 318 420 318 536 q 368 175 318 241 q 513 110 419 110 q 667 161 601 110 q 742 278 733 212 q 752 419 752 344 q 752 547 752 494 q 738 931 752 761 l 795 929 l 884 929 q 884 768 884 881 q 884 615 884 655 l 884 480 q 884 427 884 462 q 884 375 884 391 q 781 82 884 180 q 482 -15 679 -15 q 199 55 311 -15 q 88 286 88 126 q 88 616 88 383 q 88 929 88 849 q 155 929 107 929 q 207 929 203 929 "},"γ":{"x_min":0,"x_max":699.75,"ha":686,"o":"m 513 199 q 478 88 490 129 q 467 -62 467 47 q 467 -245 467 -134 q 467 -373 467 -356 q 399 -368 432 -368 q 319 -368 366 -368 l 253 -368 q 253 -204 253 -315 q 253 -72 253 -93 q 233 138 253 52 q 179 344 213 224 q 123 512 146 463 q 47 561 100 561 q 24 558 37 561 q 0 552 10 555 l 0 634 q 77 669 38 656 q 156 683 117 683 q 322 593 287 683 q 424 233 357 504 q 508 456 472 349 q 565 665 544 562 l 631 665 l 699 665 q 620 490 652 572 q 513 199 589 408 "},"α":{"x_min":30,"x_max":810.9375,"ha":860,"o":"m 657 664 l 734 664 l 810 664 q 748 499 767 551 q 706 377 729 447 l 802 0 q 748 6 776 3 q 703 10 719 10 q 649 5 678 10 q 604 0 620 1 l 583 101 q 355 -15 492 -15 q 118 83 206 -15 q 30 334 30 182 q 121 583 30 484 q 361 683 213 683 q 506 647 440 683 q 621 547 571 612 q 639 600 628 563 q 657 664 650 637 m 376 614 q 308 588 337 614 q 272 523 279 562 q 256 434 261 484 q 251 333 251 384 q 265 173 251 248 q 300 87 270 122 q 378 51 329 51 q 500 143 465 51 q 536 340 536 236 q 512 504 536 427 q 446 597 489 580 q 376 614 404 614 "},"F":{"x_min":89.390625,"x_max":632.8125,"ha":672,"o":"m 103 465 q 103 710 103 620 q 89 929 103 799 l 350 929 q 510 929 398 929 q 632 929 623 929 l 626 872 q 632 815 626 844 q 515 815 596 815 q 408 815 435 815 l 332 815 q 332 662 332 777 q 332 551 332 548 l 619 551 l 619 494 l 619 436 q 454 436 563 436 q 332 436 345 436 l 332 232 q 332 105 332 148 q 342 1 332 62 l 216 1 l 89 1 q 103 209 103 102 q 103 465 103 316 "},"­":{"x_min":0,"x_max":670,"ha":670,"o":"m 0 421 l 670 421 l 670 278 l 0 278 l 0 421 "},":":{"x_min":103,"x_max":336,"ha":438,"o":"m 218 221 q 301 185 266 221 q 336 103 336 150 q 300 19 336 54 q 218 -15 265 -15 q 137 18 171 -15 q 103 103 103 51 q 137 186 103 151 q 218 221 171 221 m 218 654 q 300 617 265 654 q 336 533 336 581 q 300 451 336 486 q 218 417 265 417 q 137 450 171 417 q 103 534 103 483 q 137 619 103 584 q 218 654 171 654 "},"Χ":{"x_min":-1.359375,"x_max":785.359375,"ha":766,"o":"m 166 241 l 295 435 l 14 929 q 92 929 38 929 q 152 929 147 929 q 230 929 175 929 q 292 929 285 929 q 308 893 302 906 q 351 802 314 880 l 436 638 q 536 805 503 748 q 601 931 570 862 q 642 928 615 931 q 684 926 669 926 q 725 928 698 926 q 767 931 752 931 q 671 799 695 832 q 604 701 647 766 l 492 531 l 785 3 q 699 3 760 3 q 634 3 638 3 l 506 3 l 461 108 l 349 326 q 260 174 310 263 q 167 0 210 84 q 115 3 151 0 q 76 7 80 7 q 31 4 51 7 q -1 0 10 1 l 166 241 "},"*":{"x_min":89.828125,"x_max":577.109375,"ha":670,"o":"m 152 520 q 126 571 137 549 q 89 634 115 592 q 183 664 137 649 q 279 698 230 680 q 187 733 238 716 q 89 764 137 751 q 152 878 123 816 l 304 749 l 294 808 l 270 947 l 333 947 l 398 947 l 362 745 l 515 878 q 577 764 543 821 q 390 698 490 737 q 481 664 432 680 q 577 634 529 648 q 547 581 563 612 q 515 520 530 550 l 363 649 q 382 528 374 580 q 397 444 390 475 l 332 444 l 269 444 l 304 649 l 152 520 "},"°":{"x_min":162,"x_max":509,"ha":670,"o":"m 162 913 q 217 1031 162 980 q 344 1083 273 1083 q 460 1039 412 1083 q 509 925 509 995 q 455 804 509 853 q 329 755 401 755 q 210 799 259 755 q 162 913 162 843 m 237 905 q 263 832 237 863 q 332 801 290 801 q 407 837 381 801 q 433 927 433 874 q 409 1009 433 977 q 339 1041 385 1041 q 277 1017 305 1041 q 243 961 249 993 q 237 905 237 930 "},"V":{"x_min":-19.0625,"x_max":839.8125,"ha":802,"o":"m 250 230 l -19 929 q 59 929 4 929 q 118 929 115 929 l 242 929 q 292 767 265 840 l 466 295 l 634 770 q 660 851 649 812 q 679 929 672 891 l 751 929 q 796 930 766 929 q 839 932 826 932 q 737 706 785 819 l 555 231 q 479 0 510 123 q 436 4 454 2 q 405 7 419 7 q 361 3 389 7 q 329 0 333 0 q 298 97 315 47 q 250 230 280 147 "},"Ξ":{"x_min":60,"x_max":800.078125,"ha":859,"o":"m 430 193 q 640 193 507 193 q 800 193 773 193 q 796 124 796 161 l 796 99 q 796 51 796 74 q 800 4 796 27 q 616 4 739 4 q 430 4 494 4 q 243 4 367 4 q 60 4 119 4 l 60 98 l 60 193 q 276 193 143 193 q 430 193 409 193 m 429 743 q 253 743 371 743 q 76 743 134 743 q 82 804 82 784 q 82 834 82 823 q 76 926 82 878 q 262 926 137 926 q 430 926 386 926 q 614 926 490 926 q 779 926 738 926 l 779 834 l 779 743 q 605 743 722 743 q 429 743 489 743 m 697 467 l 697 379 q 566 379 656 379 q 430 379 476 379 q 294 379 383 379 q 159 379 204 379 q 160 418 159 397 q 162 467 162 440 q 162 523 162 484 q 162 566 162 562 q 430 554 294 554 q 697 566 566 554 l 697 467 "}," ":{"x_min":0,"x_max":0,"ha":368},"Ϋ":{"x_min":-30.875,"x_max":780.921875,"ha":733,"o":"m 128 650 q 51 795 91 720 q -30 929 11 869 l 90 929 l 250 929 q 358 700 322 773 q 433 554 393 627 q 530 731 482 634 q 624 929 579 827 l 697 929 l 780 929 q 632 689 700 812 q 493 421 564 566 l 493 143 l 493 3 l 406 3 l 256 3 q 256 118 256 39 q 256 236 256 197 l 256 402 l 128 650 m 238 1242 q 303 1215 276 1242 q 331 1148 331 1189 q 305 1078 331 1107 q 239 1050 280 1050 q 171 1078 200 1050 q 142 1148 142 1107 q 170 1214 142 1186 q 238 1242 199 1242 m 493 1242 q 561 1214 533 1242 q 589 1148 589 1187 q 562 1078 589 1107 q 496 1050 535 1050 q 428 1077 455 1050 q 401 1148 401 1105 q 428 1214 401 1186 q 493 1242 455 1242 "},"0":{"x_min":34,"x_max":696,"ha":734,"o":"m 360 -19 q 103 104 172 -19 q 34 436 34 228 q 107 777 34 644 q 370 910 181 910 q 629 785 562 910 q 696 443 696 660 q 623 108 696 236 q 360 -19 551 -19 m 255 447 q 255 330 255 382 q 262 213 255 279 q 289 101 269 147 q 366 56 309 56 q 444 108 421 56 q 468 221 468 160 q 471 287 468 254 q 471 458 471 365 q 471 590 471 543 q 471 665 471 637 q 446 779 471 727 q 366 832 422 832 q 274 765 292 832 q 255 598 255 698 q 255 505 255 561 q 255 447 255 448 "},"”":{"x_min":71.03125,"x_max":603,"ha":641,"o":"m 71 528 l 149 848 q 179 919 156 891 q 241 948 203 948 q 305 925 280 948 q 331 860 331 902 q 309 796 331 827 l 110 512 l 71 528 m 344 528 l 422 848 q 453 918 428 888 q 514 948 477 948 q 577 924 551 948 q 603 863 603 900 q 597 829 603 845 q 582 796 592 813 l 384 512 l 344 528 "},"@":{"x_min":59,"x_max":1280,"ha":1339,"o":"m 570 72 q 411 131 467 72 q 356 298 356 191 q 447 554 356 437 q 671 672 538 672 q 757 650 720 672 q 828 586 794 628 l 860 652 l 979 652 l 881 253 l 877 228 q 895 192 877 205 q 939 180 913 180 q 1098 289 1036 180 q 1160 503 1160 398 q 1039 771 1160 667 q 757 876 919 876 q 348 735 516 876 q 180 352 180 594 q 321 20 180 140 q 676 -100 463 -100 q 881 -66 777 -100 q 1071 24 985 -33 l 1121 -51 q 676 -204 927 -204 q 240 -54 422 -204 q 59 348 59 94 q 257 803 59 620 q 725 987 456 987 q 1113 855 946 987 q 1280 505 1280 724 q 1172 205 1280 339 q 902 72 1064 72 l 878 72 q 803 90 830 72 q 762 180 776 108 q 679 99 726 127 q 570 72 632 72 m 681 578 q 542 487 589 578 q 496 294 496 397 q 523 207 496 245 q 595 169 550 169 q 699 212 656 169 q 758 321 742 256 l 794 466 q 759 546 790 515 q 681 578 728 578 "},"Ί":{"x_min":-26.890625,"x_max":713.609375,"ha":806,"o":"m 473 402 q 473 715 473 609 q 460 931 473 821 q 526 925 490 928 q 584 922 562 922 q 654 926 608 922 q 713 931 700 931 q 700 716 700 819 q 700 465 700 613 q 700 221 700 326 q 713 3 700 116 q 634 3 690 3 q 577 3 579 3 l 460 3 q 473 200 473 89 q 473 402 473 311 m 155 953 q 207 1002 188 987 q 254 1018 227 1018 q 306 995 286 1018 q 327 944 327 973 q 308 897 327 916 q 260 863 290 878 l 39 755 l -26 755 l 155 953 "},"ö":{"x_min":31,"x_max":727.859375,"ha":759,"o":"m 387 683 q 633 588 540 683 q 727 337 727 494 q 635 79 727 173 q 379 -15 542 -15 q 126 78 222 -15 q 31 333 31 172 q 127 590 31 497 q 387 683 224 683 m 251 976 q 316 948 289 976 q 344 878 344 920 q 318 811 344 839 q 252 784 292 784 q 185 811 215 784 q 156 878 156 839 q 183 947 156 918 q 251 976 211 976 m 505 976 q 572 948 545 976 q 600 878 600 920 q 574 811 600 839 q 508 784 548 784 q 440 811 469 784 q 412 878 412 839 q 439 947 412 918 q 505 976 467 976 m 263 174 q 301 85 271 120 q 379 50 330 50 q 456 84 428 50 q 490 156 484 119 q 500 215 496 194 q 506 335 506 272 q 500 451 506 395 q 490 510 496 472 q 457 582 484 548 q 379 616 430 616 q 289 564 313 616 q 259 460 264 513 q 254 333 254 406 q 254 244 254 270 q 263 174 254 217 "},"i":{"x_min":78.546875,"x_max":308.796875,"ha":388,"o":"m 193 1013 q 269 979 236 1013 q 302 901 302 946 q 269 824 302 857 q 193 792 237 792 q 116 823 149 792 q 84 901 84 855 q 116 979 84 946 q 193 1013 149 1013 m 89 127 l 89 542 l 78 666 q 137 660 106 663 q 192 658 167 658 q 248 660 218 658 q 308 666 278 663 l 296 545 l 296 319 q 296 145 296 206 q 307 1 296 84 l 191 1 l 79 1 q 86 64 84 32 q 89 127 89 95 "},"Β":{"x_min":89.390625,"x_max":758,"ha":799,"o":"m 103 207 l 103 464 q 103 714 103 605 q 89 930 103 823 l 245 930 l 409 930 q 642 882 549 930 q 736 708 736 835 q 678 568 736 619 q 531 504 621 516 l 531 492 q 691 432 624 492 q 758 277 758 373 q 665 70 758 139 q 429 1 572 1 l 245 1 q 149 1 207 1 q 89 1 90 1 q 98 104 94 50 q 103 207 103 157 m 509 698 q 470 803 509 763 q 368 844 432 844 l 330 839 q 321 687 321 766 l 321 540 q 456 578 403 540 q 509 698 509 617 m 373 87 q 481 136 441 87 q 521 257 521 186 q 475 390 521 337 q 354 444 430 444 l 326 444 l 326 275 l 326 91 l 373 87 "},"≤":{"x_min":167,"x_max":946,"ha":1116,"o":"m 944 688 l 401 513 l 944 338 l 944 200 l 170 455 l 170 572 l 944 828 l 944 688 m 946 132 l 946 0 l 167 0 l 167 132 l 946 132 "},"υ":{"x_min":83,"x_max":752,"ha":826,"o":"m 752 415 q 652 114 752 244 q 395 -15 553 -15 q 161 56 240 -15 q 83 284 83 127 l 83 479 q 83 590 83 523 q 83 663 83 656 q 143 663 98 663 q 193 663 189 663 q 260 663 213 663 q 307 663 306 663 q 293 477 293 566 q 293 294 293 387 q 312 122 293 193 q 400 51 331 51 q 508 146 481 51 q 536 351 536 240 q 518 502 536 433 q 462 659 500 570 q 572 659 521 659 q 673 672 622 659 q 730 547 709 613 q 752 415 752 482 "},"]":{"x_min":74.921875,"x_max":372,"ha":446,"o":"m 79 -129 l 74 -86 l 226 -86 q 226 134 226 -13 q 226 356 226 283 q 226 605 226 438 q 226 854 226 772 l 160 854 l 74 854 l 79 884 q 79 908 79 895 q 74 929 76 924 l 226 929 l 372 929 l 372 566 l 372 359 l 372 200 l 372 -161 l 226 -161 q 140 -161 194 -161 q 74 -161 85 -161 l 79 -129 "},"m":{"x_min":84,"x_max":1108,"ha":1192,"o":"m 84 329 q 84 517 84 394 q 84 664 84 640 l 180 664 l 286 664 l 286 570 q 384 651 327 619 q 502 683 442 683 q 616 653 568 683 q 687 559 664 623 q 777 651 720 620 q 906 683 835 683 q 1051 624 995 683 q 1108 477 1108 566 l 1108 331 q 1108 158 1108 274 q 1108 2 1108 41 q 1050 2 1095 2 q 1000 2 1005 2 q 937 2 981 2 q 893 2 893 2 q 893 155 893 51 q 893 298 893 259 l 893 386 q 875 506 893 458 q 800 554 857 554 q 740 528 763 554 q 706 460 717 502 q 701 381 701 426 q 701 319 701 336 q 701 153 701 265 q 701 0 701 41 q 643 3 681 0 q 597 7 605 7 q 534 3 574 7 q 491 0 495 0 q 491 155 491 51 q 491 298 491 259 l 491 386 q 473 505 491 456 q 399 554 456 554 q 338 528 361 554 q 304 460 315 502 q 299 381 299 426 q 299 319 299 336 q 299 153 299 265 q 299 0 299 41 q 238 3 278 0 q 191 7 198 7 q 126 3 167 7 q 84 0 85 0 q 84 163 84 54 q 84 329 84 273 "},"χ":{"x_min":15,"x_max":715.984375,"ha":716,"o":"m 558 380 l 462 204 l 534 32 q 618 -158 574 -61 q 714 -366 662 -254 l 588 -366 q 465 -371 526 -366 q 396 -146 430 -258 l 343 2 l 262 -154 q 213 -259 236 -203 q 172 -371 190 -315 q 103 -363 140 -363 q 16 -371 61 -363 q 95 -240 51 -318 q 193 -66 138 -161 l 292 111 l 164 423 q 127 509 145 466 q 62 568 99 564 l 15 564 l 15 637 q 163 684 81 684 q 281 628 247 684 q 360 446 314 573 l 413 318 l 490 479 q 560 664 533 582 l 622 664 q 683 666 661 664 q 715 668 705 668 l 558 380 "},"8":{"x_min":34,"x_max":697,"ha":734,"o":"m 502 492 q 642 411 588 471 q 697 266 697 352 q 596 53 697 128 q 353 -21 495 -21 q 129 50 225 -21 q 34 248 34 121 q 87 406 34 340 q 231 492 141 471 l 231 501 q 116 568 161 515 q 71 689 71 620 q 163 855 71 802 q 375 908 256 908 q 574 857 490 908 q 659 696 659 806 q 617 573 659 621 q 502 501 575 525 l 502 492 m 367 527 q 449 572 425 527 q 473 684 473 617 q 450 792 473 748 q 370 836 427 836 q 285 791 311 836 q 260 682 260 746 q 286 574 260 621 q 367 527 313 527 m 363 55 q 456 117 431 55 q 481 258 481 179 q 457 395 481 335 q 373 456 434 456 q 280 392 309 456 q 252 256 252 328 q 274 114 252 174 q 363 55 296 55 "},"ί":{"x_min":79.109375,"x_max":470,"ha":388,"o":"m 90 125 l 90 542 l 79 665 q 137 660 103 660 q 193 660 170 660 q 260 661 234 660 q 309 665 286 662 q 299 586 302 615 q 296 522 296 557 l 296 113 q 298 72 296 88 q 308 1 300 56 l 192 1 l 80 1 q 86 66 83 30 q 90 125 90 103 m 298 953 q 351 1001 331 986 q 399 1017 370 1017 q 449 994 429 1017 q 470 943 470 972 q 451 897 470 915 q 403 863 433 878 l 184 755 l 115 755 l 298 953 "},"Ζ":{"x_min":24,"x_max":814.453125,"ha":813,"o":"m 24 54 q 182 311 79 143 q 347 582 285 480 q 485 812 409 684 l 287 812 q 96 800 181 812 l 103 852 q 96 929 103 894 l 434 929 q 643 929 498 929 q 798 929 788 929 l 798 902 q 561 518 681 714 q 324 121 441 321 l 554 121 q 691 121 640 121 q 814 136 742 121 q 809 43 809 96 l 809 3 q 593 3 744 3 q 433 3 441 3 q 198 3 362 3 q 24 3 34 3 l 24 54 "},"R":{"x_min":94.953125,"x_max":843.75,"ha":819,"o":"m 95 398 q 95 663 95 485 q 95 931 95 841 l 179 931 q 289 931 203 931 q 412 931 375 931 q 685 868 613 931 q 758 693 758 806 q 700 536 758 600 q 549 464 642 473 q 687 235 614 349 q 843 2 760 120 l 738 2 l 567 2 q 461 201 520 99 q 316 437 401 303 l 316 257 q 316 114 316 153 q 326 2 316 74 q 257 2 300 2 q 207 2 214 2 q 137 2 182 2 q 95 2 93 2 q 95 199 95 67 q 95 398 95 332 m 533 688 q 495 803 533 759 q 388 848 457 848 l 315 848 l 315 694 l 315 505 q 474 547 415 505 q 533 688 533 589 "},"×":{"x_min":181.03125,"x_max":951.421875,"ha":1116,"o":"m 566 501 l 860 799 l 951 706 l 657 408 l 951 106 l 860 13 l 566 315 l 272 13 l 181 106 l 475 408 l 181 706 l 272 799 l 566 501 "},"o":{"x_min":30,"x_max":726.859375,"ha":758,"o":"m 387 683 q 633 587 540 683 q 726 337 726 492 q 634 79 726 173 q 378 -15 541 -15 q 125 78 221 -15 q 30 333 30 172 q 127 590 30 498 q 387 683 224 683 m 265 173 q 300 85 270 119 q 379 51 329 51 q 456 85 428 51 q 494 172 483 119 q 500 236 496 194 q 505 336 505 279 q 500 431 505 391 q 494 494 496 472 q 456 581 483 548 q 378 615 428 615 q 286 563 310 615 q 257 459 262 512 q 251 333 251 406 q 265 173 251 248 "},"5":{"x_min":44.421875,"x_max":655,"ha":733,"o":"m 277 60 q 388 118 352 60 q 424 258 424 176 q 395 391 424 333 q 300 450 366 450 q 179 388 232 450 l 115 423 q 122 525 122 467 q 122 606 122 583 q 122 748 122 684 q 105 876 122 813 l 115 881 q 262 881 170 881 q 379 881 354 881 q 619 886 508 881 l 619 792 q 623 701 619 738 q 468 701 567 701 q 357 701 369 701 l 220 701 q 208 501 208 604 q 390 544 294 544 q 578 477 501 544 q 655 298 655 410 q 546 58 655 138 q 274 -21 438 -21 q 152 -7 217 -21 q 44 32 87 5 q 91 133 71 84 q 126 237 111 181 l 147 237 q 174 109 147 158 q 277 60 202 60 "},"7":{"x_min":94.28125,"x_max":744.453125,"ha":734,"o":"m 326 343 l 537 693 q 430 693 500 693 q 322 693 359 693 q 217 693 266 693 q 97 693 167 693 q 102 754 102 734 q 102 787 102 775 q 99 844 102 808 q 97 885 97 880 l 393 885 l 726 885 l 744 850 q 306 0 481 452 l 212 0 l 103 0 l 94 18 q 224 187 174 119 q 326 343 274 255 "},"K":{"x_min":97,"x_max":875.453125,"ha":839,"o":"m 331 716 l 331 515 l 558 787 q 622 865 607 845 q 668 929 638 885 l 752 929 q 801 930 769 929 q 853 931 834 931 q 674 746 774 851 q 494 554 574 641 l 611 377 q 875 3 739 179 l 739 3 q 651 3 713 3 q 584 3 589 3 q 475 190 535 98 q 328 404 416 282 l 328 193 q 340 3 328 94 q 265 3 318 3 q 208 3 211 3 l 97 3 q 97 236 97 69 q 97 461 97 402 q 97 623 97 515 q 97 787 97 731 l 97 931 q 154 926 111 931 q 215 922 197 922 q 277 924 248 922 q 331 931 306 927 q 331 831 331 906 q 331 716 331 755 "},",":{"x_min":24.4375,"x_max":313,"ha":368,"o":"m 107 120 q 143 202 117 167 q 213 237 170 237 q 283 207 254 237 q 313 135 313 177 q 306 100 313 117 q 288 63 300 84 l 61 -254 l 24 -239 l 107 120 "},"d":{"x_min":53,"x_max":725,"ha":808,"o":"m 312 -15 q 113 84 174 -15 q 53 336 53 184 q 121 583 53 483 q 329 683 190 683 q 510 582 442 683 l 510 737 l 510 1022 q 569 1015 542 1018 q 617 1013 597 1013 q 665 1015 640 1013 q 725 1022 689 1017 q 725 899 725 982 q 725 774 725 816 q 725 403 725 627 q 725 176 725 179 l 725 0 q 666 3 707 0 q 617 7 625 7 q 556 3 595 7 q 510 0 518 0 q 514 39 514 16 q 514 84 514 62 q 422 8 469 32 q 312 -15 376 -15 m 386 587 q 318 562 345 587 q 279 499 291 538 q 268 409 268 460 q 268 316 268 358 q 293 158 268 227 q 391 89 318 89 q 492 167 464 89 q 519 338 519 245 q 493 511 519 435 q 386 587 467 587 "},"¨":{"x_min":64,"x_max":597.609375,"ha":641,"o":"m 246 613 q 214 541 238 570 q 151 512 190 512 q 89 537 114 512 q 64 600 64 563 q 85 664 64 634 l 285 947 l 325 932 l 246 613 m 520 613 q 488 542 514 573 q 424 512 462 512 q 364 536 389 512 q 339 598 339 560 q 359 664 339 632 l 559 947 l 597 932 l 520 613 "},"E":{"x_min":89.390625,"x_max":632.453125,"ha":688,"o":"m 103 222 l 103 465 q 103 710 103 620 q 89 929 103 799 l 350 929 q 510 929 398 929 q 632 929 622 929 q 628 903 629 916 q 627 872 627 890 q 627 848 627 856 q 632 815 628 840 q 520 815 595 815 q 406 815 445 815 l 330 815 l 330 551 l 622 551 q 619 527 619 541 q 618 494 618 513 l 618 436 q 451 436 561 436 q 331 436 342 436 l 331 294 q 331 189 331 264 q 331 113 331 115 q 624 129 481 113 l 624 64 l 624 3 q 425 3 551 3 q 274 3 300 3 q 166 3 232 3 q 89 3 101 3 q 98 114 94 54 q 103 222 103 175 "},"Y":{"x_min":-29.828125,"x_max":779.5625,"ha":732,"o":"m 132 649 q 64 772 119 672 q -29 929 9 872 l 89 929 q 180 929 117 929 q 250 929 243 929 q 338 740 298 824 q 432 554 378 656 q 529 730 481 636 q 623 929 576 824 l 696 929 q 737 930 710 929 q 779 932 764 932 q 631 689 699 812 q 491 420 563 566 l 491 143 l 491 3 l 405 3 l 256 3 q 256 138 256 50 q 256 237 256 226 l 256 402 l 132 649 "},"\"":{"x_min":52,"x_max":391,"ha":443,"o":"m 177 958 l 177 586 l 52 586 l 52 958 l 177 958 m 391 958 l 391 586 l 266 586 l 266 958 l 391 958 "},"ê":{"x_min":41,"x_max":671,"ha":715,"o":"m 473 97 q 555 111 522 97 q 631 159 589 126 l 649 151 q 630 95 639 124 q 616 40 621 66 q 511 -1 566 11 q 396 -15 457 -15 q 138 79 236 -15 q 41 336 41 173 q 135 586 41 490 q 379 683 230 683 q 596 601 522 683 q 671 373 671 520 l 671 332 l 262 332 q 319 164 262 231 q 473 97 377 97 m 296 1000 l 417 1000 l 566 754 l 501 754 l 357 876 l 212 754 l 147 754 l 296 1000 m 469 411 q 472 444 472 422 q 450 567 472 513 q 370 621 429 621 q 286 563 311 621 q 261 437 261 505 l 261 411 l 469 411 "},"δ":{"x_min":30,"x_max":675,"ha":705,"o":"m 533 794 q 489 889 521 854 q 400 924 457 924 q 324 895 357 924 q 292 822 292 867 q 386 671 292 739 q 574 539 481 603 q 675 308 675 444 q 589 71 675 157 q 352 -15 503 -15 q 117 70 205 -15 q 30 305 30 155 q 87 503 30 419 q 251 614 145 586 q 128 697 175 650 q 82 812 82 743 q 170 968 82 916 q 367 1021 258 1021 q 617 946 500 1021 q 595 876 605 912 q 571 789 585 839 l 533 794 m 264 162 q 291 82 271 114 q 353 51 310 51 q 425 95 405 51 q 452 204 446 139 l 452 305 l 452 407 q 429 513 452 464 q 356 561 406 561 q 292 529 315 561 q 264 449 269 496 q 256 382 256 421 q 256 305 256 343 q 257 227 256 248 q 264 162 259 205 "},"έ":{"x_min":54,"x_max":654,"ha":643,"o":"m 501 501 q 463 579 492 548 q 389 611 434 611 q 317 578 345 611 q 290 499 290 545 q 311 430 290 460 q 371 396 333 401 l 441 396 l 441 373 q 441 337 441 350 q 442 317 441 324 q 406 320 431 320 q 315 281 354 320 q 277 195 277 243 q 316 102 277 145 q 405 59 356 59 q 489 88 452 59 q 561 167 526 117 l 588 156 q 584 130 585 145 q 583 104 583 115 q 583 82 583 90 q 588 53 583 74 q 345 -15 477 -15 q 143 30 232 -15 q 54 176 54 75 q 103 290 54 244 q 228 361 153 336 q 125 421 164 386 q 87 516 87 457 q 163 643 87 603 q 334 683 239 683 q 581 612 471 683 q 554 556 565 583 q 539 501 543 530 l 501 501 m 483 955 q 535 1003 515 988 q 583 1019 554 1019 q 633 996 613 1019 q 654 945 654 974 q 635 899 654 917 q 587 865 617 880 l 368 757 l 300 757 l 483 955 "},"ω":{"x_min":30,"x_max":1039,"ha":1072,"o":"m 329 -15 q 109 79 189 -15 q 30 320 30 173 q 71 504 30 420 q 189 666 112 588 q 291 662 232 662 q 340 662 312 662 q 382 666 367 662 q 242 280 242 499 q 263 123 242 194 q 350 51 285 51 q 412 86 391 51 q 434 165 434 121 l 434 292 q 434 415 434 379 q 425 512 434 451 q 501 506 489 506 q 534 506 512 506 q 596 508 568 506 q 644 511 624 511 q 635 403 635 465 q 635 289 635 340 q 635 237 635 258 q 636 165 635 215 q 655 85 636 119 q 715 51 674 51 q 805 121 782 51 q 828 279 828 191 q 792 481 828 386 q 687 666 756 576 q 731 663 710 663 q 778 663 752 663 q 830 663 796 663 q 881 663 864 663 q 997 506 955 591 q 1039 320 1039 420 q 956 83 1039 181 q 738 -15 873 -15 q 618 13 672 -15 q 534 100 564 41 q 450 14 505 44 q 329 -15 394 -15 "},"´":{"x_min":69.671875,"x_max":331,"ha":366,"o":"m 69 528 l 148 848 q 179 918 155 888 q 239 948 204 948 q 304 923 277 948 q 331 861 331 899 q 325 829 331 845 q 310 796 320 813 l 109 512 l 69 528 "},"±":{"x_min":166,"x_max":950,"ha":1116,"o":"m 623 815 l 623 597 l 950 597 l 950 465 l 623 465 l 623 246 l 491 246 l 491 465 l 166 465 l 166 597 l 491 597 l 491 815 l 623 815 m 950 132 l 950 0 l 166 0 l 166 132 l 950 132 "},"|":{"x_min":267,"x_max":403,"ha":670,"o":"m 403 955 l 403 447 l 267 447 l 267 955 l 403 955 m 403 272 l 403 -233 l 267 -233 l 267 272 l 403 272 "},"ϋ":{"x_min":83,"x_max":752,"ha":826,"o":"m 752 415 q 652 114 752 244 q 395 -15 553 -15 q 161 56 240 -15 q 83 284 83 127 l 83 479 q 83 590 83 523 q 83 663 83 656 q 143 663 98 663 q 193 663 189 663 q 260 663 214 663 q 308 663 306 663 q 293 477 293 566 q 293 294 293 387 q 312 122 293 193 q 400 51 331 51 q 508 146 481 51 q 536 351 536 240 q 518 502 536 433 q 462 659 500 570 q 572 659 521 659 q 673 672 623 659 q 730 547 709 613 q 752 415 752 481 m 260 975 q 325 947 298 975 q 353 879 353 919 q 327 811 353 840 q 263 783 302 783 q 194 810 224 783 q 165 879 165 838 q 192 947 165 919 q 260 975 219 975 m 514 975 q 579 947 552 975 q 607 879 607 919 q 581 811 607 840 q 517 783 556 783 q 450 811 479 783 q 421 879 421 840 q 448 947 421 919 q 514 975 475 975 "},"§":{"x_min":60,"x_max":671,"ha":728,"o":"m 115 39 l 133 39 q 203 -72 146 -32 q 334 -113 259 -113 q 432 -84 390 -113 q 475 -1 475 -55 q 370 121 475 73 q 167 213 266 169 q 60 386 60 277 q 93 495 60 437 q 171 584 126 554 q 128 649 144 615 q 113 720 113 683 q 201 886 113 824 q 398 948 289 948 q 520 936 469 948 q 617 894 571 925 q 586 825 601 859 q 559 754 571 791 l 547 754 q 490 847 537 812 q 381 883 442 883 q 294 857 333 883 q 256 784 256 831 q 359 671 256 716 q 563 583 462 626 q 671 413 671 519 q 644 302 671 354 q 568 216 617 250 q 610 149 590 197 q 630 68 630 101 q 534 -116 630 -51 q 315 -182 438 -182 q 193 -171 250 -182 q 84 -135 136 -161 q 115 39 104 -39 m 193 477 q 304 346 193 399 q 510 248 415 293 q 535 312 535 273 q 424 431 535 379 q 220 527 314 484 q 193 477 197 508 "},"b":{"x_min":82,"x_max":757,"ha":809,"o":"m 82 646 q 82 844 82 712 q 82 1023 82 976 q 134 1017 103 1020 q 189 1015 165 1015 q 244 1017 213 1015 q 297 1023 275 1020 l 297 723 l 297 577 q 381 656 332 630 q 495 683 430 683 q 690 581 624 683 q 757 340 757 479 q 681 88 757 191 q 461 -15 605 -15 q 333 15 392 -15 q 233 104 275 46 q 199 75 211 87 q 133 2 186 62 l 82 2 q 82 357 82 132 q 82 646 82 583 m 422 586 q 313 512 340 586 q 286 338 286 438 q 311 162 286 238 q 416 86 336 86 q 518 159 494 86 q 543 331 543 233 q 520 510 543 434 q 422 586 498 586 "},"q":{"x_min":50,"x_max":721,"ha":808,"o":"m 325 -15 q 118 81 187 -15 q 50 323 50 177 q 115 576 50 469 q 316 683 180 683 q 513 580 438 683 l 513 605 q 506 666 513 631 q 575 659 557 659 q 615 659 593 659 q 721 666 662 659 q 721 415 721 560 q 721 125 721 270 q 721 -124 721 -19 q 721 -247 721 -165 q 721 -372 721 -329 q 674 -363 704 -366 q 616 -361 643 -361 q 552 -363 570 -361 q 509 -372 534 -365 l 509 -58 l 509 85 q 429 10 473 35 q 325 -15 385 -15 m 379 81 q 476 135 444 81 q 514 261 507 189 l 514 300 q 514 351 514 330 q 514 392 514 372 q 482 518 514 460 q 386 576 450 576 q 284 502 308 576 q 261 327 261 429 q 282 155 261 229 q 379 81 304 81 "},"Ω":{"x_min":37,"x_max":1151.078125,"ha":1186,"o":"m 1149 128 q 1147 102 1147 116 q 1147 82 1147 89 l 1147 70 q 1147 35 1147 52 q 1151 1 1147 19 l 935 1 l 701 1 l 701 102 q 831 250 797 161 q 866 473 866 339 q 799 740 866 622 q 595 859 732 859 q 388 737 452 859 q 324 456 324 616 q 361 245 324 338 q 486 102 398 152 l 486 1 l 251 1 l 37 1 l 37 80 l 37 128 q 258 112 148 112 q 125 257 168 166 q 83 463 83 349 q 230 820 83 692 q 609 948 378 948 q 969 829 830 948 q 1108 491 1108 711 q 1061 271 1108 363 q 910 112 1014 180 q 1149 128 1028 112 "},"ύ":{"x_min":83,"x_max":752,"ha":826,"o":"m 752 415 q 652 114 752 244 q 395 -15 553 -15 q 161 56 240 -15 q 83 284 83 127 l 83 479 q 83 590 83 523 q 83 663 83 656 q 143 663 98 663 q 193 663 189 663 q 260 663 213 663 q 307 663 306 663 q 293 477 293 566 q 293 294 293 387 q 312 122 293 193 q 400 51 331 51 q 508 146 481 51 q 536 351 536 240 q 518 502 536 433 q 462 659 500 570 q 572 659 521 659 q 673 672 623 659 q 731 547 710 613 q 752 415 752 481 m 540 953 q 592 1002 572 987 q 641 1018 612 1018 q 691 995 671 1018 q 712 944 712 973 q 693 897 712 916 q 645 863 675 878 l 426 755 l 358 755 l 540 953 "},"Ö":{"x_min":39,"x_max":1065,"ha":1106,"o":"m 565 948 q 926 828 788 948 q 1065 485 1065 709 q 923 115 1065 245 q 541 -15 781 -15 q 173 107 307 -15 q 39 465 39 229 q 184 822 39 696 q 565 948 330 948 m 425 1242 q 490 1215 463 1242 q 518 1148 518 1189 q 492 1079 518 1108 q 426 1050 466 1050 q 359 1079 388 1050 q 330 1148 330 1109 q 358 1214 330 1186 q 425 1242 387 1242 m 679 1242 q 745 1215 718 1242 q 773 1148 773 1189 q 747 1079 773 1108 q 681 1050 721 1050 q 615 1079 642 1050 q 588 1148 588 1108 q 615 1214 588 1186 q 679 1242 642 1242 m 550 71 q 758 194 691 71 q 825 470 825 318 q 758 742 825 623 q 551 861 691 861 q 346 741 411 861 q 281 465 281 622 q 346 191 281 312 q 550 71 412 71 "},"z":{"x_min":19,"x_max":627.359375,"ha":651,"o":"m 19 75 q 116 216 32 95 q 252 415 199 337 q 352 566 304 492 l 250 566 q 148 560 201 566 q 65 550 94 554 l 65 607 l 65 662 l 330 662 q 497 662 395 662 q 615 662 598 662 l 615 586 q 505 441 561 518 q 391 278 448 363 q 274 102 333 192 l 367 102 q 496 102 409 102 q 627 102 583 102 q 626 76 626 93 q 626 51 626 60 l 626 35 l 626 3 q 450 3 556 3 q 326 3 344 3 q 144 3 254 3 q 19 3 35 3 l 19 75 "},"™":{"x_min":133,"x_max":944,"ha":1114,"o":"m 452 974 l 452 899 l 342 899 l 342 608 l 243 608 l 243 899 l 133 899 l 133 974 l 452 974 m 652 974 l 736 750 l 816 974 l 944 974 l 944 609 l 856 609 l 856 880 l 756 609 l 715 609 l 612 880 l 612 609 l 524 609 l 524 974 l 652 974 "},"ή":{"x_min":84,"x_max":713,"ha":792,"o":"m 84 338 q 84 511 84 391 q 84 666 84 631 q 135 664 123 664 q 176 664 146 664 q 240 664 195 664 q 287 664 284 664 l 287 567 q 384 651 332 622 q 503 680 436 680 q 651 621 593 680 q 709 470 709 563 l 709 327 l 709 -49 q 709 -219 709 -106 q 709 -373 709 -331 q 607 -365 658 -365 q 497 -373 552 -365 l 497 16 l 497 251 l 497 367 q 477 498 497 445 q 399 551 458 551 q 314 487 336 551 q 299 419 300 456 q 298 330 298 381 q 298 148 298 263 q 298 0 298 33 q 238 3 273 0 q 191 7 203 7 q 125 3 160 7 q 84 0 90 0 q 84 188 84 65 q 84 338 84 310 m 541 953 q 594 1002 574 987 q 642 1018 613 1018 q 692 995 672 1018 q 713 944 713 973 q 694 897 713 916 q 646 863 676 878 l 427 755 l 359 755 l 541 953 "},"Θ":{"x_min":41,"x_max":1066,"ha":1107,"o":"m 50 583 q 231 854 84 760 q 566 948 378 948 q 926 828 786 948 q 1066 487 1066 709 q 923 116 1066 247 q 542 -15 781 -15 q 174 107 308 -15 q 41 464 41 229 q 41 509 41 491 q 50 583 41 527 m 548 72 q 757 193 690 72 q 824 471 824 314 q 758 741 824 623 q 555 859 693 859 q 347 741 412 859 q 282 464 282 623 q 346 192 282 313 q 548 72 411 72 m 555 527 q 665 527 599 527 q 740 527 731 527 l 738 538 l 738 471 l 738 402 l 740 409 l 553 409 l 368 409 l 368 468 l 368 527 q 476 527 409 527 q 555 527 543 527 "},"®":{"x_min":71,"x_max":1044,"ha":1115,"o":"m 1044 488 q 899 139 1044 285 q 556 -6 755 -6 q 215 139 359 -6 q 71 488 71 285 q 215 836 71 688 q 556 984 360 984 q 899 838 755 984 q 1044 488 1044 692 m 153 488 q 272 197 153 320 q 555 75 391 75 q 842 197 720 75 q 964 486 964 320 q 844 779 964 656 q 557 903 724 903 q 272 779 392 903 q 153 488 153 656 m 566 773 q 726 739 657 773 q 796 624 796 706 q 763 526 796 568 q 679 466 730 483 l 798 222 l 654 222 l 549 446 l 487 446 l 487 223 l 354 223 l 354 773 l 566 773 m 487 527 l 551 527 q 628 545 597 527 q 660 607 660 563 q 642 659 660 637 q 595 684 625 681 q 544 690 572 690 l 487 690 l 487 527 "},"É":{"x_min":89.390625,"x_max":630,"ha":689,"o":"m 103 223 l 103 465 q 103 712 103 621 q 89 930 103 803 l 349 930 l 630 930 l 630 871 l 630 816 q 520 816 595 816 q 406 816 445 816 l 331 816 q 331 663 331 774 q 331 551 331 552 l 622 551 q 619 521 622 546 q 617 494 617 496 q 619 458 617 477 q 623 436 621 440 q 468 436 577 436 q 330 436 360 436 l 330 291 q 330 203 330 248 q 335 114 330 158 q 475 114 413 114 q 628 127 537 114 q 623 65 623 100 q 623 37 623 47 q 628 3 623 27 q 420 3 546 3 q 275 3 293 3 q 166 3 238 3 q 89 3 94 3 q 99 117 96 59 q 103 223 103 175 m 403 1221 q 457 1271 437 1256 q 506 1286 477 1286 q 556 1264 536 1286 q 577 1214 577 1242 q 558 1168 577 1188 q 510 1133 540 1148 l 289 1025 l 221 1025 l 403 1221 "},"~":{"x_min":261,"x_max":1069,"ha":1339,"o":"m 1069 938 q 1012 722 1069 808 q 830 636 956 636 q 647 720 742 636 q 508 804 553 804 q 419 756 444 804 q 394 636 394 708 l 261 636 q 320 848 261 760 q 500 937 380 937 q 682 852 587 937 q 829 768 777 768 q 915 815 893 768 q 937 938 937 863 l 1069 938 "},"Ε":{"x_min":89.390625,"x_max":632.453125,"ha":688,"o":"m 103 222 l 103 465 q 103 710 103 620 q 89 929 103 799 l 350 929 q 510 929 398 929 q 632 929 622 929 q 628 903 629 916 q 627 872 627 890 q 627 848 627 856 q 632 815 628 840 q 520 815 595 815 q 406 815 445 815 l 330 815 l 330 551 l 622 551 q 619 527 619 541 q 618 494 618 513 l 618 436 q 451 436 561 436 q 331 436 342 436 l 331 294 q 331 189 331 264 q 331 113 331 115 q 624 129 481 113 l 624 64 l 624 3 q 425 3 551 3 q 274 3 300 3 q 166 3 232 3 q 89 3 101 3 q 98 114 94 54 q 103 222 103 175 "},"³":{"x_min":17.328125,"x_max":439,"ha":484,"o":"m 237 899 q 362 867 308 899 q 416 770 416 836 q 390 699 416 730 q 295 645 365 667 q 395 608 352 645 q 439 513 439 571 q 368 384 439 427 q 206 342 297 342 q 106 352 149 342 q 17 392 63 362 q 89 506 60 451 l 99 506 q 120 420 99 453 q 190 388 141 388 q 261 421 235 388 q 287 500 287 454 q 259 580 287 549 q 183 611 232 611 l 148 611 l 148 658 l 177 658 q 254 684 224 658 q 284 759 284 710 q 262 828 284 800 q 203 856 241 856 q 138 821 160 856 q 117 743 117 787 l 108 736 q 25 815 74 777 q 118 876 52 854 q 237 899 183 899 "},"[":{"x_min":108,"x_max":407.078125,"ha":445,"o":"m 401 883 l 407 854 l 256 854 l 256 541 q 256 212 256 433 q 256 -86 256 -8 l 321 -86 l 407 -86 l 401 -115 q 407 -161 401 -141 l 253 -161 l 108 -161 q 108 154 108 -49 q 108 383 108 359 q 108 703 108 497 q 108 929 108 909 q 190 929 136 929 q 253 929 245 929 q 341 929 279 929 q 407 929 403 929 q 401 883 401 910 "},"L":{"x_min":89.390625,"x_max":624,"ha":636,"o":"m 103 465 q 103 710 103 621 q 89 929 103 800 l 211 929 l 343 929 q 330 618 330 783 l 330 296 q 330 201 330 249 q 334 113 330 153 q 624 129 481 113 l 624 64 l 624 3 q 425 3 551 3 q 274 3 300 3 q 166 3 232 3 q 89 3 101 3 q 103 210 103 103 q 103 465 103 317 "},"σ":{"x_min":30,"x_max":815.09375,"ha":810,"o":"m 665 554 q 716 451 710 495 q 724 384 722 406 q 727 338 727 361 q 724 277 727 295 q 712 190 722 259 q 605 53 702 121 q 378 -15 509 -15 q 124 78 219 -15 q 30 336 30 172 q 125 588 30 494 q 376 683 220 683 q 526 672 424 683 q 664 662 627 662 q 750 662 691 662 q 815 662 809 662 q 811 610 811 637 l 811 594 l 815 554 l 688 554 l 665 554 m 251 333 q 265 173 251 248 q 298 87 270 123 q 374 51 326 51 q 466 103 435 51 q 498 220 498 155 q 501 258 499 234 q 504 323 504 282 q 504 411 504 370 q 498 444 499 427 q 470 562 498 510 q 382 615 442 615 q 294 565 321 615 q 259 450 266 516 q 251 333 251 384 "},"ζ":{"x_min":63,"x_max":654,"ha":643,"o":"m 226 359 l 226 339 l 226 313 q 337 191 226 216 q 543 162 440 175 q 654 23 654 132 q 615 -104 654 -43 q 515 -222 577 -165 l 449 -182 q 495 -115 483 -135 q 511 -64 506 -96 q 367 12 511 -7 q 143 71 224 32 q 63 259 63 109 q 120 494 63 381 q 252 691 178 607 q 457 902 326 775 q 273 902 346 902 q 122 892 200 902 l 122 957 l 122 1019 q 250 1019 163 1019 q 381 1019 337 1019 q 501 1019 421 1019 q 622 1019 581 1019 l 618 977 l 622 934 q 425 763 511 847 q 282 577 339 679 q 226 359 226 475 "},"θ":{"x_min":34,"x_max":697,"ha":734,"o":"m 697 450 q 624 110 697 240 q 360 -19 552 -19 q 103 103 172 -19 q 34 434 34 226 q 104 774 34 641 q 362 908 175 908 q 626 785 555 908 q 697 450 697 662 m 365 413 q 301 413 346 413 q 252 413 255 413 q 252 324 252 373 q 259 209 252 275 q 286 96 266 144 q 364 49 306 49 q 423 72 400 49 q 456 135 445 96 q 471 264 471 192 q 471 413 471 337 q 412 413 458 413 q 365 413 367 413 m 476 601 q 456 769 476 698 q 366 840 437 840 q 272 758 295 840 q 250 557 250 677 l 250 489 l 364 489 l 476 489 l 476 601 "},"Ο":{"x_min":39,"x_max":1064,"ha":1106,"o":"m 565 948 q 925 828 787 948 q 1064 485 1064 709 q 923 114 1064 244 q 541 -15 782 -15 q 173 107 307 -15 q 39 465 39 229 q 184 822 39 696 q 565 948 330 948 m 550 72 q 757 193 692 72 q 823 471 823 314 q 757 741 823 623 q 554 859 692 859 q 346 741 411 859 q 281 464 281 623 q 346 192 281 312 q 550 72 411 72 "},"Γ":{"x_min":89.828125,"x_max":624.640625,"ha":637,"o":"m 228 929 l 440 929 l 624 929 l 624 866 l 624 802 q 476 815 537 815 q 334 815 415 815 q 332 766 332 801 q 332 678 332 730 l 332 632 l 332 311 q 332 138 332 195 q 344 1 332 82 l 212 1 l 98 1 q 98 238 98 70 q 98 465 98 406 q 98 713 98 613 q 89 929 98 813 q 159 929 112 929 q 228 929 205 929 "}," ":{"x_min":0,"x_max":0,"ha":368},"%":{"x_min":27,"x_max":1063,"ha":1100,"o":"m 259 910 q 426 844 362 910 q 490 672 490 779 q 426 496 490 562 q 253 431 363 431 q 88 498 150 431 q 27 669 27 565 q 91 843 27 776 q 259 910 155 910 m 813 1015 l 898 1015 l 266 -125 l 181 -125 l 813 1015 m 832 463 q 999 401 936 463 q 1063 230 1063 339 q 1002 51 1063 117 q 828 -15 941 -15 q 664 51 728 -15 q 600 222 600 118 q 661 398 600 333 q 832 463 723 463 m 192 561 q 209 505 192 532 q 255 478 227 478 q 290 489 274 478 q 315 525 306 501 q 327 586 324 548 q 331 669 331 625 q 331 723 331 697 q 326 780 331 749 q 306 836 322 811 q 259 861 291 861 q 200 820 218 861 q 187 752 190 786 q 184 669 184 719 q 192 561 184 615 m 763 112 q 781 57 763 83 q 829 31 799 31 q 876 59 855 31 q 898 114 898 87 q 904 222 904 162 q 904 275 904 248 q 897 338 899 312 q 878 389 894 364 q 831 414 862 414 q 795 404 810 414 q 775 375 780 394 q 760 312 764 347 q 757 241 757 276 l 757 222 q 757 183 757 201 q 763 112 757 165 "},"P":{"x_min":89.828125,"x_max":750,"ha":785,"o":"m 330 201 q 330 129 330 148 q 342 2 330 110 q 268 2 313 2 q 216 2 223 2 q 141 2 186 2 q 89 2 96 2 q 98 212 98 112 q 98 460 98 312 q 98 722 98 548 q 98 928 98 897 q 158 928 110 928 q 210 928 206 928 l 387 928 l 436 928 q 664 871 578 928 q 750 678 750 814 q 678 484 750 562 q 535 398 607 406 q 417 390 463 390 q 330 390 371 390 l 330 201 m 525 668 q 488 787 525 740 q 382 834 452 834 l 328 834 l 328 693 l 328 486 q 475 528 426 486 q 525 668 525 571 "},"Ώ":{"x_min":-27.1875,"x_max":1423.078125,"ha":1458,"o":"m 1421 128 q 1419 103 1419 117 q 1419 82 1419 89 l 1419 70 q 1419 35 1419 52 q 1423 1 1419 19 l 1207 1 l 973 1 l 973 102 q 1103 250 1069 162 q 1138 473 1138 339 q 1071 740 1138 622 q 867 859 1004 859 q 660 737 724 859 q 596 456 596 616 q 633 245 596 338 q 758 102 670 152 l 758 1 l 523 1 l 309 1 l 309 80 l 309 128 q 530 112 420 112 q 397 257 440 166 q 355 463 355 349 q 502 820 355 692 q 881 948 650 948 q 1241 829 1102 948 q 1380 491 1380 711 q 1333 271 1380 363 q 1182 112 1286 180 q 1421 128 1300 112 m 155 953 q 207 1001 187 986 q 254 1017 227 1017 q 306 994 286 1017 q 327 943 327 972 q 308 897 327 915 q 260 863 290 878 l 39 755 l -27 755 l 155 953 "},"Έ":{"x_min":-26.890625,"x_max":1000.453125,"ha":1056,"o":"m 471 222 l 471 465 q 471 710 471 620 q 457 929 471 799 l 718 929 q 878 929 766 929 q 1000 929 990 929 q 996 903 997 916 q 995 872 995 890 q 995 847 995 856 q 1000 815 995 838 q 888 815 963 815 q 774 815 813 815 l 698 815 l 698 551 l 990 551 q 987 527 987 541 q 986 494 986 513 l 986 436 q 819 436 929 436 q 699 436 710 436 l 699 294 q 699 189 699 264 q 699 113 699 115 q 992 129 849 113 l 992 64 l 992 3 q 793 3 919 3 q 642 3 668 3 q 534 3 600 3 q 457 3 469 3 q 466 114 462 54 q 471 222 471 175 m 155 954 q 207 1002 188 987 q 254 1018 227 1018 q 306 995 286 1018 q 327 944 327 973 q 308 897 327 916 q 260 863 290 878 l 39 755 l -26 755 l 155 954 "},"_":{"x_min":0,"x_max":670,"ha":670,"o":"m 670 -185 l 670 -322 l 0 -322 l 0 -185 l 670 -185 "},"Ϊ":{"x_min":-1,"x_max":441,"ha":440,"o":"m 101 403 q 101 709 101 510 q 101 931 101 907 q 158 925 128 928 q 216 923 189 923 q 281 927 238 923 q 336 931 325 931 q 336 687 336 859 q 336 465 336 516 q 336 221 336 391 q 336 3 336 51 q 277 3 323 3 q 208 3 231 3 l 101 3 q 101 234 101 85 q 101 403 101 383 m 91 1241 q 156 1214 129 1241 q 184 1147 184 1188 q 158 1077 184 1106 q 95 1049 133 1049 q 27 1078 56 1049 q -1 1147 -1 1107 q 26 1213 -1 1185 q 91 1241 53 1241 m 345 1241 q 413 1213 385 1241 q 441 1147 441 1186 q 415 1078 441 1107 q 349 1049 389 1049 q 281 1077 310 1049 q 252 1147 252 1106 q 280 1213 252 1185 q 345 1241 309 1241 "},"+":{"x_min":166,"x_max":949,"ha":1115,"o":"m 623 812 l 623 473 l 949 473 l 949 340 l 623 340 l 623 0 l 491 0 l 491 340 l 166 340 l 166 473 l 491 473 l 491 812 l 623 812 "},"½":{"x_min":66.96875,"x_max":1122.890625,"ha":1147,"o":"m 199 482 l 199 735 l 199 807 q 145 783 174 797 q 101 763 117 769 l 66 813 q 192 859 129 833 q 325 917 254 885 l 339 908 q 339 744 339 843 q 339 643 339 645 l 338 649 l 338 504 l 338 510 q 338 458 338 479 q 343 392 338 436 l 294 392 q 243 392 276 392 q 199 392 209 392 l 199 482 m 827 1012 l 909 1012 l 321 -125 l 239 -125 l 827 1012 m 706 41 q 889 194 822 122 q 957 364 957 266 q 942 433 957 407 q 887 459 928 459 q 823 426 846 459 q 789 345 800 394 l 780 345 q 752 378 773 357 q 713 417 732 398 q 805 486 758 464 q 917 509 853 509 q 1046 473 992 509 q 1101 364 1101 438 q 1014 208 1101 270 q 872 111 928 147 l 951 111 q 1048 111 980 111 q 1122 111 1117 111 q 1112 48 1112 80 q 1116 23 1112 37 q 1121 1 1120 9 l 986 1 l 714 1 l 706 41 "},"Ρ":{"x_min":89.828125,"x_max":750,"ha":785,"o":"m 330 201 q 330 129 330 148 q 342 2 330 110 q 268 2 313 2 q 216 2 223 2 q 141 2 186 2 q 89 2 96 2 q 98 212 98 112 q 98 460 98 312 q 98 722 98 548 q 98 928 98 897 q 158 928 110 928 q 210 928 206 928 l 387 928 l 436 928 q 664 871 578 928 q 750 678 750 814 q 678 484 750 562 q 535 398 607 406 q 417 390 463 390 q 330 390 371 390 l 330 201 m 525 668 q 488 787 525 740 q 382 834 452 834 l 328 834 l 328 693 l 328 486 q 475 528 426 486 q 525 668 525 571 "},"'":{"x_min":71.03125,"x_max":331,"ha":368,"o":"m 71 528 l 149 848 q 181 918 156 888 q 241 948 205 948 q 305 923 279 948 q 331 860 331 898 q 309 796 331 827 l 110 512 l 71 528 "},"T":{"x_min":10,"x_max":722,"ha":734,"o":"m 485 817 q 485 723 485 790 q 485 652 485 656 q 485 427 485 529 q 485 202 485 326 q 485 2 485 77 q 430 2 472 2 q 367 2 388 2 q 312 2 344 2 q 248 2 279 2 q 248 266 248 88 q 248 476 248 444 q 248 670 248 533 q 248 815 248 808 q 155 815 184 815 q 10 801 126 815 l 10 871 l 10 926 q 195 926 69 926 q 366 926 321 926 q 562 926 437 926 q 722 926 687 926 l 722 870 l 722 801 q 485 817 603 817 "},"Φ":{"x_min":35,"x_max":1071,"ha":1106,"o":"m 436 958 q 503 951 474 954 q 554 949 532 949 q 621 953 587 949 q 669 958 655 957 q 663 908 667 942 q 659 857 659 875 l 736 850 q 978 731 886 828 q 1071 484 1071 633 q 960 206 1071 300 q 659 71 850 112 q 660 31 659 44 q 669 -27 661 19 q 607 -20 640 -24 q 554 -17 573 -17 q 490 -22 524 -17 q 436 -27 455 -27 q 444 17 440 -5 q 449 71 449 39 l 372 81 q 130 204 226 102 q 35 453 35 306 q 147 731 35 635 q 449 857 259 826 q 444 910 449 878 q 436 958 439 942 m 654 699 l 654 466 l 654 232 l 654 170 q 800 266 757 181 q 844 467 844 350 q 800 665 844 582 q 654 763 757 749 l 654 699 m 411 754 q 295 654 329 738 q 261 468 261 570 q 303 266 261 350 q 450 170 345 182 l 450 232 l 450 422 l 450 699 l 450 763 l 411 754 "},"j":{"x_min":-61.5625,"x_max":302,"ha":388,"o":"m 193 659 q 230 659 212 659 q 302 665 249 659 l 302 489 q 302 182 302 369 q 302 -31 302 -4 q 209 -278 302 -195 q -49 -361 116 -361 l -61 -305 q 54 -240 21 -305 q 87 -81 87 -176 l 87 255 q 87 459 87 321 q 87 665 87 596 q 193 659 143 659 m 188 1013 q 265 979 232 1013 q 298 901 298 946 q 265 824 298 857 q 188 792 233 792 q 112 823 145 792 q 80 901 80 855 q 112 979 80 946 q 188 1013 145 1013 "},"Σ":{"x_min":18,"x_max":786.078125,"ha":827,"o":"m 734 867 l 734 808 q 629 808 701 808 q 517 808 557 808 l 362 808 q 472 663 419 733 q 582 519 524 594 q 395 314 487 419 l 298 208 l 533 208 q 659 208 574 208 q 782 208 743 208 l 782 112 q 786 1 782 59 l 448 1 l 18 1 l 18 56 q 256 330 136 181 l 358 460 q 218 657 293 559 q 55 864 144 755 l 55 927 q 238 927 116 927 q 423 927 361 927 q 618 927 501 927 q 734 927 735 927 l 734 867 "},"1":{"x_min":54.375,"x_max":487.09375,"ha":733,"o":"m 264 616 q 264 680 264 637 q 264 747 264 723 q 193 713 218 726 q 110 666 168 699 l 54 754 q 462 940 285 848 l 485 927 l 485 452 l 483 463 l 483 202 l 487 215 q 487 102 487 177 q 487 3 487 26 l 375 3 q 308 3 355 3 q 264 3 261 3 q 264 360 264 130 q 264 616 264 591 "},"ä":{"x_min":44,"x_max":693.375,"ha":692,"o":"m 233 -15 q 97 35 151 -15 q 44 169 44 86 q 208 352 44 301 q 394 422 373 404 q 402 440 402 433 q 366 540 402 502 q 270 578 331 578 q 137 511 181 578 l 132 511 l 113 586 q 225 658 160 633 q 357 684 289 684 q 531 624 468 684 q 594 452 594 565 l 594 214 q 594 167 594 185 q 598 124 594 149 q 614 88 602 100 q 646 77 627 77 q 666 81 654 77 q 689 90 678 85 l 693 40 q 631 3 663 15 q 553 -12 599 -7 q 472 7 509 -12 q 413 64 435 26 q 233 -15 345 -15 m 217 976 q 283 948 256 976 q 311 878 311 920 q 285 811 311 839 q 219 784 259 784 q 152 811 182 784 q 123 878 123 839 q 151 946 123 917 q 217 976 180 976 m 473 976 q 539 948 512 976 q 567 878 567 920 q 541 811 567 839 q 475 784 515 784 q 408 812 437 784 q 379 878 379 841 q 406 946 379 917 q 473 976 433 976 m 236 200 q 256 128 236 158 q 315 99 276 99 q 380 131 360 99 q 401 211 401 164 l 401 351 q 282 302 328 337 q 236 200 236 266 "},"<":{"x_min":171,"x_max":940,"ha":1114,"o":"m 940 649 l 356 406 l 940 163 l 940 18 l 171 340 l 171 472 l 940 795 l 940 649 "},"£":{"x_min":47.203125,"x_max":719.78125,"ha":733,"o":"m 54 89 q 51 142 54 117 q 47 181 48 167 q 135 198 98 181 q 180 253 172 215 q 189 314 189 291 l 189 427 l 151 427 q 97 424 125 427 q 55 422 68 422 l 60 467 l 55 511 q 111 505 79 505 q 180 505 142 505 q 168 597 168 552 q 253 828 168 747 q 489 909 339 909 q 719 848 610 909 q 696 777 704 809 q 677 695 688 746 l 644 695 q 601 795 632 757 q 512 833 569 833 q 408 787 445 833 q 371 671 371 741 q 376 583 371 638 q 382 505 382 528 l 453 505 l 469 505 q 509 505 490 505 q 586 511 527 505 l 582 466 l 586 423 l 484 423 l 383 423 q 336 287 375 338 q 214 190 297 235 l 531 190 l 710 190 q 702 146 706 174 q 698 98 698 117 q 700 62 698 78 q 710 4 702 45 q 546 4 654 4 q 383 4 439 4 q 215 4 327 4 q 47 4 104 4 q 51 49 48 20 q 54 89 54 78 "},"¹":{"x_min":65.4375,"x_max":355.4375,"ha":485,"o":"m 207 725 l 207 802 q 154 781 182 795 q 100 754 126 767 l 65 807 q 203 856 155 838 q 336 918 251 875 l 350 910 l 350 627 l 350 638 l 350 477 l 350 484 q 350 429 350 450 q 355 355 350 407 l 303 355 l 198 355 q 207 520 207 417 q 207 634 207 622 l 207 725 "},"t":{"x_min":10,"x_max":460.75,"ha":454,"o":"m 10 582 l 10 626 l 10 671 q 54 667 24 667 q 101 667 83 667 l 101 687 l 101 704 q 92 823 101 765 q 188 859 144 839 q 292 914 232 880 l 321 914 q 313 853 317 890 q 309 791 309 816 l 309 667 l 337 667 q 424 671 380 667 l 424 629 l 424 582 l 305 582 l 305 226 q 317 108 305 150 q 387 66 330 66 q 460 72 419 66 l 455 10 q 375 -10 418 -3 q 288 -17 332 -17 q 146 26 195 -17 q 97 165 97 69 q 97 410 97 261 q 97 582 97 559 l 10 582 "},"λ":{"x_min":23.140625,"x_max":650.609375,"ha":672,"o":"m 540 2 l 426 2 q 387 177 409 79 q 354 323 366 275 q 313 490 343 372 q 230 238 265 359 q 176 2 196 117 l 102 2 l 23 2 q 108 214 69 110 q 179 416 147 318 q 259 662 212 513 q 210 833 243 759 q 110 908 178 908 q 79 903 98 908 q 51 895 61 898 l 32 963 q 120 1007 76 992 q 212 1023 164 1023 q 377 924 336 1023 q 450 717 419 826 l 519 459 l 650 2 l 540 2 "},"ù":{"x_min":78,"x_max":704,"ha":792,"o":"m 467 757 l 246 865 q 196 900 213 883 q 180 946 180 917 q 201 998 180 977 q 253 1019 223 1019 q 299 1003 279 1019 q 351 955 320 987 l 533 757 l 467 757 m 285 -15 q 137 41 196 -15 q 78 188 78 98 l 78 337 q 78 509 78 394 q 78 667 78 624 q 132 661 106 661 q 182 661 158 661 q 237 662 207 661 q 296 667 268 664 q 286 455 286 570 l 286 384 l 286 279 q 311 146 286 181 q 386 111 337 111 q 456 147 431 111 q 489 234 482 184 l 489 330 q 489 488 489 415 q 489 667 489 562 q 543 662 508 662 q 601 662 578 662 q 659 663 629 662 q 704 667 689 664 q 704 505 704 624 q 704 326 704 386 q 704 156 704 270 q 704 3 704 43 l 607 3 l 502 3 l 502 95 q 403 15 460 45 q 285 -15 346 -15 "},"W":{"x_min":-8.171875,"x_max":1298.5,"ha":1300,"o":"m -8 929 q 66 929 13 929 q 122 929 118 929 q 186 929 144 929 q 250 929 228 929 q 294 736 272 829 q 350 519 317 644 q 411 298 383 394 q 494 547 446 402 q 564 758 543 692 q 620 929 586 824 l 696 929 q 741 930 711 929 q 786 932 771 932 q 841 729 819 806 q 894 556 864 651 q 978 297 925 462 q 1143 929 1072 604 l 1223 929 q 1272 930 1254 929 q 1298 932 1290 932 l 1205 643 l 999 0 q 953 4 963 4 q 918 4 943 4 q 867 2 886 4 q 838 0 847 0 q 777 200 815 80 q 725 363 739 319 l 639 623 q 532 325 582 476 q 432 0 483 175 q 385 3 415 0 q 352 7 356 7 q 302 4 323 7 q 266 0 280 1 q 181 320 217 191 q 105 574 144 448 q -8 929 66 700 "},"ï":{"x_min":-26,"x_max":413,"ha":387,"o":"m 90 127 l 90 542 q 85 601 90 557 q 80 666 80 645 q 138 660 109 663 q 194 658 168 658 q 250 660 219 658 q 310 666 281 663 q 305 621 309 658 q 297 544 301 584 l 297 319 l 297 114 l 309 1 l 191 1 l 80 1 q 90 127 90 67 m 66 976 q 131 947 104 976 q 158 878 158 918 q 133 811 158 839 q 69 784 108 784 q 1 811 29 784 q -26 878 -26 838 q 1 946 -26 917 q 66 976 28 976 m 320 976 q 385 948 358 976 q 413 878 413 920 q 387 811 413 838 q 322 784 362 784 q 254 811 282 784 q 227 878 227 838 q 254 947 227 918 q 320 976 282 976 "},">":{"x_min":171,"x_max":941,"ha":1114,"o":"m 941 472 l 941 340 l 171 18 l 171 163 l 755 406 l 171 649 l 171 795 l 941 472 "},"v":{"x_min":0,"x_max":656.0625,"ha":653,"o":"m 0 662 q 73 662 25 662 q 129 662 121 662 q 198 662 153 662 q 250 662 242 662 l 287 527 l 379 223 q 515 666 464 446 l 583 659 q 624 662 598 659 q 656 666 650 666 q 530 343 590 504 q 409 0 470 181 q 361 4 387 4 q 323 4 334 4 q 274 2 304 4 q 239 0 243 0 q 126 338 181 185 q 0 662 72 491 "},"τ":{"x_min":9.140625,"x_max":642.453125,"ha":648,"o":"m 437 554 l 437 518 l 437 108 q 449 1 437 55 l 333 1 l 221 1 q 228 69 226 40 q 231 125 231 98 l 231 320 l 231 516 l 231 556 q 58 460 112 556 l 24 460 q 20 516 24 490 q 9 580 17 542 q 120 640 58 624 q 258 657 182 657 l 432 657 q 642 666 545 657 q 637 609 637 640 q 642 554 637 579 q 515 554 592 554 q 437 554 439 554 "},"û":{"x_min":78,"x_max":704,"ha":792,"o":"m 335 1004 l 456 1004 l 606 757 l 540 757 l 395 879 l 250 757 l 184 757 l 335 1004 m 285 -15 q 137 41 196 -15 q 78 188 78 98 l 78 337 q 78 509 78 394 q 78 667 78 624 q 132 661 106 661 q 182 661 158 661 q 237 662 207 661 q 296 667 268 664 q 286 455 286 570 l 286 384 l 286 279 q 311 146 286 181 q 386 111 337 111 q 456 147 431 111 q 489 234 482 184 l 489 330 q 489 488 489 415 q 489 667 489 562 q 543 662 508 662 q 601 662 578 662 q 659 663 629 662 q 704 667 689 664 q 704 505 704 624 q 704 326 704 386 q 704 156 704 270 q 704 3 704 43 l 607 3 l 502 3 l 502 95 q 403 15 460 45 q 285 -15 346 -15 "},"ξ":{"x_min":52,"x_max":662,"ha":662,"o":"m 549 813 q 498 904 524 873 q 423 936 472 936 q 329 887 365 936 q 293 776 293 838 q 365 648 293 683 q 539 614 437 614 l 537 569 l 537 527 l 447 527 q 314 498 372 527 q 246 432 255 469 q 235 386 236 395 q 234 360 234 376 q 235 322 234 335 q 239 304 236 310 q 356 205 253 227 q 558 166 460 184 q 662 25 662 131 q 634 -83 662 -26 q 525 -221 607 -139 l 458 -181 q 504 -114 488 -140 q 520 -54 520 -87 q 372 24 520 -4 q 138 98 224 53 q 52 288 52 143 q 111 467 52 390 q 268 586 170 544 q 140 666 191 615 q 90 790 90 716 q 177 961 90 900 q 381 1023 264 1023 q 505 1008 446 1023 q 628 963 564 994 q 608 886 619 936 q 592 809 596 836 l 549 813 "},"&":{"x_min":49,"x_max":930,"ha":955,"o":"m 310 -18 q 125 44 202 -18 q 49 215 49 106 q 112 388 49 315 q 274 502 176 462 q 211 608 237 546 q 186 723 186 670 q 260 876 186 822 q 438 931 335 931 q 592 888 526 931 q 659 760 659 846 q 609 631 659 687 q 484 541 559 576 q 695 295 581 412 q 771 421 736 348 q 829 567 806 494 q 863 517 844 538 q 916 463 882 495 q 834 336 871 387 q 746 233 797 286 q 840 123 795 175 q 930 26 885 72 l 930 1 q 843 7 870 7 q 802 7 816 7 q 742 7 763 7 q 676 1 720 7 l 600 92 q 460 11 534 40 q 310 -18 386 -18 m 227 284 q 278 160 227 214 q 399 106 330 106 q 474 118 440 106 q 551 155 508 130 q 413 323 459 264 q 323 442 366 381 q 252 373 278 411 q 227 284 227 336 m 536 759 q 512 830 536 802 q 444 859 488 859 q 411 853 427 859 q 372 822 386 849 q 358 768 358 796 q 376 696 358 739 q 439 596 394 653 q 509 668 483 627 q 536 759 536 709 "},"Λ":{"x_min":-19.0625,"x_max":839.8125,"ha":819,"o":"m 571 699 l 839 0 q 766 1 807 0 q 709 3 725 3 q 632 3 675 3 q 575 3 590 3 q 551 90 567 43 q 528 164 536 137 l 352 637 l 186 161 q 140 3 160 87 l 70 3 q 35 3 47 3 q -19 0 23 3 q 24 92 -2 33 q 81 226 51 151 l 266 698 q 304 810 284 746 q 341 932 325 873 q 386 927 371 929 q 415 926 401 926 q 464 929 447 926 q 491 932 481 932 q 571 699 525 819 "},"I":{"x_min":92.75,"x_max":345.609375,"ha":438,"o":"m 105 402 q 105 715 105 609 q 92 931 105 822 q 158 925 122 928 q 216 922 194 922 q 286 926 240 922 q 345 931 332 931 q 332 716 332 819 q 332 465 332 613 q 332 221 332 326 q 345 3 332 116 q 266 3 322 3 q 209 3 211 3 l 92 3 q 105 200 105 89 q 105 402 105 311 "},"G":{"x_min":42,"x_max":924,"ha":995,"o":"m 541 -15 q 180 110 318 -15 q 42 461 42 236 q 191 823 42 693 q 571 954 340 954 q 748 932 665 954 q 910 865 831 911 q 861 697 877 784 l 844 697 q 734 816 802 772 q 583 860 666 860 q 383 769 462 860 q 294 608 303 679 q 284 513 286 536 q 282 469 282 490 q 284 404 282 426 q 288 375 287 382 q 382 167 305 250 q 579 84 459 84 q 699 100 639 84 q 685 430 699 272 q 808 424 753 424 q 924 432 869 424 q 924 324 924 396 q 924 214 924 251 q 924 118 924 185 q 924 47 924 51 q 731 1 823 17 q 541 -15 639 -15 "},"ΰ":{"x_min":38,"x_max":752,"ha":826,"o":"m 752 415 q 652 114 752 244 q 395 -15 553 -15 q 161 56 240 -15 q 83 284 83 127 l 83 479 q 83 590 83 523 q 83 663 83 656 q 143 663 98 663 q 193 663 189 663 q 260 663 213 663 q 307 663 306 663 q 293 477 293 566 q 293 294 293 387 q 312 122 293 193 q 400 51 331 51 q 508 146 481 51 q 536 351 536 240 q 518 502 536 433 q 463 659 501 570 q 572 659 521 659 q 673 672 623 659 q 731 547 710 613 q 752 415 752 481 m 118 961 q 175 935 152 961 q 199 877 199 910 q 175 820 199 844 q 118 797 152 797 q 62 820 87 797 q 38 879 38 844 q 61 935 38 910 q 118 961 84 961 m 453 1017 q 494 999 476 1017 q 512 958 512 981 q 498 919 512 935 q 461 887 484 903 l 276 755 l 219 755 l 361 951 q 405 999 384 980 q 453 1017 426 1017 m 643 961 q 699 935 674 961 q 724 877 724 910 q 700 820 724 844 q 644 797 677 797 q 587 820 612 797 q 563 879 563 844 q 586 936 563 912 q 643 961 610 961 "},"`":{"x_min":65,"x_max":324.984375,"ha":368,"o":"m 247 613 q 213 540 236 568 q 150 512 190 512 q 90 536 116 512 q 65 598 65 561 q 86 664 65 634 l 286 947 l 324 932 l 247 613 "},"Υ":{"x_min":-29.828125,"x_max":779.5625,"ha":732,"o":"m 132 649 q 64 772 119 672 q -29 929 9 872 l 89 929 q 180 929 117 929 q 250 929 243 929 q 338 740 298 824 q 432 554 378 656 q 529 730 481 636 q 623 929 576 824 l 696 929 q 737 930 710 929 q 779 932 764 932 q 631 689 699 812 q 491 420 563 566 l 491 143 l 491 3 l 405 3 l 256 3 q 256 138 256 50 q 256 237 256 226 l 256 402 l 132 649 "},"r":{"x_min":84,"x_max":495.4375,"ha":510,"o":"m 84 326 q 84 495 84 381 q 84 664 84 609 l 178 664 q 241 664 197 664 q 291 664 285 664 q 278 592 281 630 q 274 504 274 554 l 283 504 q 351 632 306 581 q 465 683 396 683 l 495 680 q 485 570 485 629 q 485 456 485 510 q 439 476 462 467 q 399 486 416 486 q 316 439 338 486 q 294 323 294 392 q 294 147 294 208 q 304 0 294 86 q 242 3 283 0 q 191 7 202 7 q 127 3 168 7 q 84 0 86 0 q 84 162 84 54 q 84 326 84 270 "},"x":{"x_min":-5.4375,"x_max":632.921875,"ha":632,"o":"m 151 3 l 81 3 q 27 3 44 3 q -5 0 5 0 q 106 148 53 75 q 217 307 160 222 l 110 498 l 6 662 q 83 662 36 662 q 137 662 130 662 q 210 662 164 662 q 265 662 255 662 l 357 473 q 409 555 389 521 q 470 667 430 590 l 541 660 q 588 663 559 660 q 623 667 617 667 q 525 542 567 598 q 409 384 483 486 l 525 178 q 632 3 575 89 q 559 3 607 3 q 504 3 511 3 q 431 3 479 3 q 377 3 383 3 l 269 218 l 151 3 "},"è":{"x_min":41,"x_max":671,"ha":715,"o":"m 473 97 q 555 111 522 97 q 631 159 589 126 l 649 151 q 630 95 639 124 q 616 40 621 66 q 511 -1 566 11 q 396 -15 457 -15 q 138 79 236 -15 q 41 336 41 173 q 135 586 41 490 q 379 683 230 683 q 596 601 522 683 q 671 373 671 520 l 671 332 l 262 332 q 319 164 262 231 q 473 97 377 97 m 427 754 l 208 862 q 160 896 178 877 q 142 945 142 914 q 163 995 142 975 q 213 1016 184 1016 q 269 995 246 1016 q 314 952 292 974 l 497 754 l 427 754 m 469 411 q 472 444 472 422 q 450 567 472 513 q 370 621 429 621 q 286 563 311 621 q 261 437 261 505 l 261 411 l 469 411 "},"μ":{"x_min":77.546875,"x_max":708,"ha":792,"o":"m 708 322 q 708 136 708 257 q 708 3 708 15 l 616 3 q 553 3 597 3 q 507 3 509 3 l 507 81 q 439 4 469 23 q 377 -15 409 -15 q 326 -3 345 -15 q 283 25 307 7 l 283 33 l 282 -57 l 283 -189 l 287 -180 q 287 -278 287 -212 q 287 -367 287 -343 q 217 -362 237 -362 q 186 -362 198 -362 q 147 -362 166 -362 q 77 -367 129 -362 q 83 -277 83 -323 q 83 -187 83 -231 l 83 117 q 83 303 83 178 q 83 492 83 428 q 83 593 83 530 q 83 667 83 655 q 186 660 136 660 q 252 663 211 660 q 295 667 292 667 q 295 506 295 614 q 295 360 295 399 l 295 260 q 313 142 295 189 q 389 95 331 95 q 473 153 454 95 q 493 299 493 211 q 493 517 493 385 q 493 667 493 650 q 607 660 555 660 q 670 663 633 660 q 708 667 708 667 q 708 465 708 594 q 708 322 708 336 "},"÷":{"x_min":166,"x_max":950,"ha":1116,"o":"m 656 667 q 626 597 656 626 q 555 568 596 568 q 487 597 516 568 q 459 669 459 626 q 487 739 459 710 q 556 769 516 769 q 627 739 598 769 q 656 667 656 710 m 950 473 l 950 341 l 166 341 l 166 473 l 950 473 m 655 144 q 625 73 655 103 q 557 44 596 44 q 487 73 516 44 q 459 142 459 102 q 488 214 459 184 q 557 244 517 244 q 626 216 597 244 q 655 144 655 188 "},"h":{"x_min":84,"x_max":715.53125,"ha":792,"o":"m 500 683 q 648 626 591 683 q 706 477 706 570 l 706 403 l 706 247 q 706 109 706 148 q 715 2 706 70 q 652 2 696 2 q 606 2 609 2 q 541 2 587 2 q 491 2 495 2 q 500 147 500 73 q 500 333 500 222 l 500 426 q 474 517 494 483 q 406 551 454 551 q 352 534 375 551 q 319 489 329 517 q 304 428 309 462 q 299 331 299 394 q 299 166 299 277 q 299 0 299 55 q 240 3 279 0 q 191 7 201 7 q 127 3 168 7 q 84 0 86 0 q 84 255 84 84 q 84 513 84 426 q 84 768 84 598 q 84 1020 84 939 l 177 1020 l 194 1020 q 299 1022 255 1020 q 299 901 299 975 q 299 814 299 827 l 299 582 q 500 683 374 683 "},".":{"x_min":67,"x_max":300,"ha":368,"o":"m 184 221 q 263 186 226 221 q 300 104 300 151 q 265 23 300 61 q 184 -15 230 -15 q 101 18 135 -15 q 67 103 67 51 q 101 186 67 151 q 184 221 135 221 "},"φ":{"x_min":31,"x_max":992,"ha":1023,"o":"m 408 388 q 466 605 408 528 q 657 682 525 682 q 894 588 797 682 q 992 351 992 494 q 885 94 992 179 q 604 -7 778 9 q 604 -198 604 -69 q 604 -373 604 -326 l 533 -367 q 461 -367 493 -367 q 403 -373 429 -367 q 403 -183 403 -315 q 403 -5 403 -51 q 352 1 370 1 q 314 7 334 1 q 110 117 189 28 q 31 333 31 206 q 120 567 31 487 q 367 668 210 647 q 373 641 368 655 q 385 611 378 628 q 272 503 304 575 q 241 328 241 431 q 279 142 241 223 q 408 61 317 61 l 408 275 l 408 388 m 600 61 q 692 88 656 66 q 746 157 727 109 q 770 255 765 205 q 776 377 776 305 q 776 450 776 416 q 766 527 776 484 q 735 592 757 571 q 684 613 713 613 q 619 563 638 613 q 600 459 600 514 l 600 275 l 600 61 "},";":{"x_min":50.1875,"x_max":340,"ha":438,"o":"m 221 653 q 304 618 269 653 q 340 533 340 583 q 305 450 340 485 q 223 416 271 416 q 140 449 174 416 q 106 533 106 482 q 140 618 106 583 q 221 653 174 653 m 131 120 q 169 203 142 170 q 239 237 195 237 q 307 207 278 237 q 336 137 336 178 q 330 100 336 116 q 312 63 325 84 l 86 -254 l 50 -239 l 131 120 "},"f":{"x_min":8,"x_max":454.75,"ha":417,"o":"m 374 1023 q 424 1018 405 1023 q 454 1009 445 1011 q 435 933 447 986 q 411 826 422 879 l 404 826 q 355 861 377 849 q 304 873 333 873 q 228 811 228 873 q 253 729 228 773 q 295 658 278 685 l 311 658 q 348 658 330 658 q 420 664 366 658 l 418 668 l 418 641 q 418 607 418 624 q 420 576 418 589 l 351 582 l 302 582 l 302 273 q 302 166 302 200 q 317 0 302 133 q 253 3 293 0 q 204 7 213 7 q 141 3 181 7 q 91 0 101 0 q 101 127 101 51 q 101 274 101 204 l 101 583 l 55 583 l 8 583 l 8 621 l 8 664 q 50 659 28 659 q 103 659 73 659 q 180 903 103 784 q 374 1023 257 1023 "},"“":{"x_min":64,"x_max":597.609375,"ha":641,"o":"m 246 613 q 214 541 238 570 q 151 512 190 512 q 89 537 114 512 q 64 600 64 563 q 85 664 64 634 l 285 947 l 325 932 l 246 613 m 520 613 q 488 542 514 573 q 424 512 462 512 q 364 536 389 512 q 339 598 339 560 q 359 664 339 632 l 559 947 l 597 932 l 520 613 "},"A":{"x_min":-28.578125,"x_max":833,"ha":813,"o":"m 107 321 q 189 529 140 399 q 272 750 239 659 q 344 945 306 842 l 412 945 l 480 945 q 658 449 573 684 q 833 1 744 215 l 702 1 l 568 1 l 540 91 l 487 261 q 390 261 439 261 q 294 261 341 261 l 198 261 q 110 1 159 134 l 21 1 l -28 1 l 107 321 m 347 369 l 454 369 q 408 509 431 447 q 348 661 385 572 q 238 369 289 518 l 347 369 "},"6":{"x_min":39,"x_max":701.859375,"ha":733,"o":"m 453 546 q 633 475 564 546 q 701 293 701 405 q 616 65 701 150 q 390 -19 530 -19 q 130 84 221 -19 q 39 362 39 187 q 156 750 39 590 q 490 911 274 911 q 570 903 532 911 q 656 879 607 895 q 644 812 649 845 q 639 748 639 779 l 630 747 q 567 804 599 784 q 491 825 535 825 q 323 716 374 825 q 271 475 271 608 q 351 528 302 511 q 453 546 400 546 m 376 449 q 293 393 312 449 q 274 257 274 337 q 292 113 274 174 q 374 52 310 52 q 460 110 440 52 q 480 256 480 169 q 460 393 480 337 q 376 449 440 449 "},"‘":{"x_min":67,"x_max":325.625,"ha":366,"o":"m 246 613 q 214 540 237 568 q 148 512 190 512 q 90 537 114 512 q 67 599 67 563 q 73 632 67 611 q 88 663 80 652 l 287 947 l 325 934 l 246 613 "},"ϊ":{"x_min":-27,"x_max":415,"ha":388,"o":"m 90 125 l 90 542 l 79 665 q 136 660 103 660 q 193 660 170 660 q 260 661 233 660 q 309 665 286 662 q 299 586 302 615 q 296 522 296 557 l 296 113 q 298 72 296 88 q 308 1 300 56 l 191 1 l 80 1 q 86 66 83 30 q 90 125 90 103 m 66 974 q 133 946 106 974 q 161 878 161 918 q 135 810 161 839 q 71 782 110 782 q 2 809 32 782 q -27 878 -27 837 q 0 946 -27 918 q 66 974 27 974 m 322 974 q 387 946 360 974 q 415 878 415 918 q 389 810 415 839 q 325 782 364 782 q 256 809 286 782 q 227 878 227 837 q 254 946 227 918 q 322 974 281 974 "},"π":{"x_min":18.8125,"x_max":938,"ha":946,"o":"m 791 517 l 791 107 l 791 0 l 683 0 l 571 0 q 575 60 571 18 q 580 124 580 102 l 580 320 l 580 559 l 496 559 l 414 559 l 414 522 l 414 108 q 424 0 414 55 l 308 0 l 197 0 q 205 64 202 37 q 208 114 208 91 l 208 313 l 208 511 l 208 554 q 126 529 161 554 q 66 459 90 503 l 32 459 q 31 508 32 495 q 18 601 29 521 q 133 647 74 635 q 268 660 193 660 l 521 660 l 777 660 l 938 660 l 938 611 l 938 553 l 791 553 l 791 517 "},"ά":{"x_min":30,"x_max":811.578125,"ha":861,"o":"m 657 664 l 735 664 l 811 664 q 748 499 768 551 q 706 377 729 447 l 803 0 q 748 6 777 3 q 704 10 720 10 q 650 5 679 10 q 604 0 620 1 l 583 101 q 355 -15 492 -15 q 118 83 206 -15 q 30 334 30 182 q 121 583 30 484 q 362 683 213 683 q 506 647 440 683 q 622 547 571 612 q 639 600 628 563 q 657 664 650 637 m 512 952 q 565 1000 545 985 q 613 1016 585 1016 q 664 993 644 1016 q 685 942 685 971 q 666 896 685 914 q 618 862 648 877 l 398 754 l 330 754 l 512 952 m 376 614 q 308 588 337 614 q 272 523 279 562 q 256 434 261 484 q 251 333 251 384 q 265 173 251 248 q 300 87 270 122 q 378 51 329 51 q 500 143 465 51 q 536 340 536 236 q 512 504 536 427 q 446 597 489 580 q 376 614 404 614 "},"O":{"x_min":39,"x_max":1064,"ha":1106,"o":"m 565 948 q 925 828 787 948 q 1064 485 1064 709 q 923 114 1064 244 q 541 -15 782 -15 q 173 107 307 -15 q 39 465 39 229 q 184 822 39 696 q 565 948 330 948 m 550 72 q 757 193 692 72 q 823 471 823 314 q 757 741 823 623 q 554 859 692 859 q 346 741 411 859 q 281 464 281 623 q 346 192 281 312 q 550 72 411 72 "},"n":{"x_min":84,"x_max":709,"ha":792,"o":"m 84 338 q 84 511 84 391 q 84 666 84 631 q 135 661 123 661 q 176 661 146 661 q 244 661 210 661 q 287 666 273 665 l 287 567 q 384 648 326 616 q 500 680 441 680 q 650 623 591 680 q 709 474 709 566 l 709 328 q 709 172 709 287 q 709 3 709 58 q 661 3 696 3 q 607 3 626 3 q 542 3 588 3 q 497 3 497 3 q 497 174 497 58 q 497 333 497 291 l 497 358 q 498 426 497 392 q 474 513 498 476 q 406 551 451 551 q 352 533 375 551 q 316 486 328 516 q 301 419 304 456 q 298 330 298 381 q 298 148 298 263 q 298 0 298 33 q 240 3 280 0 q 191 7 199 7 q 126 3 167 7 q 84 0 85 0 q 84 188 84 65 q 84 338 84 310 "},"3":{"x_min":29.859375,"x_max":667,"ha":734,"o":"m 357 908 q 549 853 469 908 q 630 691 630 799 q 581 565 630 612 q 448 485 533 517 l 448 476 q 605 410 544 463 q 667 260 667 356 q 562 50 667 121 q 313 -21 457 -21 q 29 57 152 -21 q 89 161 66 120 q 134 250 111 202 l 151 250 q 181 109 151 167 q 287 51 212 51 q 397 109 360 51 q 434 244 434 167 q 390 374 434 326 q 266 423 346 423 l 227 423 l 227 504 l 263 504 q 384 549 338 504 q 430 670 430 594 q 400 785 430 738 q 307 833 370 833 q 209 776 239 833 q 180 644 180 719 l 167 634 q 119 690 142 665 q 42 767 95 716 q 176 873 92 839 q 357 908 259 908 "},"9":{"x_min":30,"x_max":691,"ha":733,"o":"m 276 343 q 97 414 164 343 q 30 601 30 486 q 119 827 30 744 q 352 911 209 911 q 606 801 522 911 q 691 515 691 692 q 571 135 691 291 q 239 -21 452 -21 q 155 -12 190 -21 q 73 9 120 -4 q 86 75 81 43 q 91 140 91 107 l 100 143 q 160 84 125 105 q 239 64 195 64 q 407 172 356 64 q 458 413 458 280 q 379 359 427 376 q 276 343 332 343 m 352 440 q 436 495 416 440 q 456 630 456 551 q 436 775 456 714 q 353 837 417 837 q 270 778 288 837 q 251 631 251 720 q 271 496 251 553 q 352 440 291 440 "},"l":{"x_min":90,"x_max":302,"ha":399,"o":"m 90 501 q 90 701 90 579 q 90 843 90 823 l 90 1023 q 151 1016 122 1019 q 197 1014 179 1014 q 259 1018 227 1014 q 302 1022 291 1022 q 302 719 302 915 q 302 501 302 523 l 302 180 l 302 0 q 257 5 302 1 q 197 10 213 10 q 136 6 166 10 q 90 0 106 3 q 90 292 90 104 q 90 501 90 480 "},"κ":{"x_min":84,"x_max":718.03125,"ha":740,"o":"m 182 662 q 294 665 234 662 l 294 509 l 294 460 l 294 388 q 416 509 363 446 q 534 664 468 573 l 606 664 l 694 664 l 700 656 l 615 575 l 466 424 q 541 291 500 363 q 624 153 583 220 l 718 2 q 647 2 692 2 q 595 2 603 2 q 526 2 568 2 q 477 2 483 2 q 378 174 432 82 q 292 328 324 266 l 292 249 q 292 106 292 206 q 292 1 292 6 l 187 1 l 84 1 q 84 127 84 42 q 84 254 84 211 q 84 460 84 322 q 84 662 84 598 l 182 662 "},"4":{"x_min":42,"x_max":693.8125,"ha":733,"o":"m 693 381 l 687 298 q 689 247 687 270 q 693 210 692 224 q 582 219 636 219 l 582 174 q 582 83 582 126 q 593 0 582 40 q 529 3 567 0 q 487 7 491 7 q 424 3 464 7 q 376 0 385 0 q 385 103 385 44 q 385 215 385 162 l 302 215 q 165 215 257 215 q 42 215 74 215 l 42 295 l 42 378 q 169 567 110 477 q 278 737 228 657 q 385 907 329 817 q 491 902 433 902 q 541 902 515 902 q 588 907 576 906 q 588 718 588 842 q 588 532 588 595 l 588 369 q 639 373 604 369 q 693 381 674 378 m 387 369 l 387 750 l 138 369 l 387 369 "},"p":{"x_min":84,"x_max":756,"ha":808,"o":"m 490 683 q 689 574 622 683 q 756 322 756 466 q 686 82 756 179 q 481 -15 617 -15 q 298 84 363 -15 l 298 -70 l 298 -384 q 244 -378 272 -381 q 191 -376 216 -376 q 136 -378 167 -376 q 84 -384 105 -381 q 84 -251 84 -341 q 84 -131 84 -162 l 84 487 l 84 666 q 191 660 138 660 q 230 660 212 660 q 300 666 248 660 q 293 580 293 618 q 382 656 334 630 q 490 683 429 683 m 421 79 q 462 86 443 79 q 504 122 481 94 q 536 204 527 151 q 545 337 545 258 q 520 503 545 431 q 421 576 496 576 q 316 501 342 576 q 291 327 291 427 q 316 152 291 226 q 421 79 341 79 "},"ψ":{"x_min":60,"x_max":1009,"ha":1043,"o":"m 1009 437 q 905 132 1009 250 q 622 -6 802 14 q 622 -189 622 -67 q 622 -372 622 -311 l 551 -366 q 478 -366 510 -366 q 419 -372 446 -366 q 419 -159 419 -296 q 419 -4 419 -21 q 370 0 397 -2 q 269 20 344 3 q 127 124 194 38 q 60 332 60 211 l 60 484 l 60 665 l 164 665 l 267 665 q 267 506 267 619 q 267 358 267 393 q 295 145 267 229 q 419 52 324 61 l 419 254 q 419 572 419 368 q 419 797 419 777 l 529 797 l 622 797 q 622 649 622 748 q 622 501 622 551 l 622 254 l 622 52 q 757 147 718 52 q 797 360 797 242 q 787 498 797 440 q 751 650 777 557 q 854 654 809 650 q 965 666 900 658 q 1009 437 1009 552 "},"Ü":{"x_min":88,"x_max":884,"ha":977,"o":"m 204 929 l 322 929 q 322 643 322 836 q 322 420 322 451 q 360 197 322 284 q 515 110 398 110 q 668 162 601 110 q 743 279 734 214 q 752 420 752 344 q 752 548 752 495 q 739 929 752 755 l 796 929 l 884 929 q 884 770 884 883 q 884 616 884 656 l 884 480 l 884 375 q 782 81 884 178 q 481 -15 680 -15 q 198 56 309 -15 q 88 287 88 128 q 88 619 88 386 q 88 929 88 852 l 204 929 m 385 1242 q 450 1215 423 1242 q 478 1148 478 1189 q 452 1078 478 1107 q 387 1050 427 1050 q 319 1078 347 1050 q 292 1148 292 1107 q 319 1214 292 1186 q 385 1242 346 1242 m 640 1242 q 706 1214 680 1242 q 733 1148 733 1187 q 708 1079 733 1108 q 644 1050 684 1050 q 575 1077 604 1050 q 547 1148 547 1105 q 574 1214 547 1187 q 640 1242 602 1242 "},"à":{"x_min":44,"x_max":693.375,"ha":692,"o":"m 233 -15 q 97 35 151 -15 q 44 169 44 86 q 208 352 44 301 q 394 422 373 404 q 402 440 402 433 q 366 540 402 502 q 270 578 331 578 q 138 511 181 578 l 132 511 l 113 586 q 225 658 160 633 q 357 684 289 684 q 531 624 468 684 q 594 452 594 565 l 594 214 q 594 167 594 185 q 598 124 594 149 q 614 88 602 100 q 646 77 627 77 q 666 81 654 77 q 689 90 678 85 l 693 40 q 631 3 663 15 q 553 -12 599 -7 q 472 8 511 -12 q 413 64 433 28 q 233 -15 345 -15 m 417 755 l 197 863 q 143 903 157 884 q 130 946 130 922 q 151 997 130 976 q 203 1018 173 1018 q 249 1003 229 1018 q 304 954 268 989 l 485 755 l 417 755 m 236 200 q 256 128 236 158 q 315 99 276 99 q 380 131 360 99 q 401 211 401 164 l 401 351 q 282 302 328 337 q 236 200 236 266 "},"η":{"x_min":84,"x_max":709,"ha":792,"o":"m 84 338 q 84 511 84 391 q 84 666 84 631 q 135 664 123 664 q 176 664 146 664 q 240 664 195 664 q 287 664 284 664 l 287 567 q 384 651 332 622 q 503 680 436 680 q 651 621 593 680 q 709 470 709 563 l 709 327 l 709 -49 q 709 -219 709 -106 q 709 -373 709 -331 q 607 -365 658 -365 q 497 -373 552 -365 l 497 16 l 497 251 l 497 367 q 477 498 497 445 q 399 551 458 551 q 314 487 336 551 q 299 419 300 456 q 298 330 298 381 q 298 148 298 263 q 298 0 298 33 q 238 3 273 0 q 191 7 203 7 q 125 3 160 7 q 84 0 90 0 q 84 188 84 65 q 84 338 84 310 "}}}
